<?xml version="1.0" encoding="UTF-8" standalone="no"?><svg xmlns="http://www.w3.org/2000/svg" xmlns:xlink="http://www.w3.org/1999/xlink" contentStyleType="text/css" height="333px" preserveAspectRatio="none" style="width:598px;height:333px;background:#FFFFFF;" version="1.1" viewBox="0 0 598 333" width="598px" zoomAndPan="magnify"><defs/><g><rect fill="none" height="27.6094" id="_title" style="stroke:none;stroke-width:1.0;" width="118" x="233.4254" y="5"/><text fill="#000000" font-family="sans-serif" font-size="14" font-weight="bold" lengthAdjust="spacing" textLength="108" x="238.4254" y="24.5332">Server API UCD</text><!--MD5=[0ba5ee7700168656dc1b457c6fe9fdac]
entity Client--><g id="elem_Client"><ellipse cx="311.5" cy="52.6094" fill="#F1F1F1" rx="8" ry="8" style="stroke:#181818;stroke-width:0.5;"/><path d="M311.5,60.6094 L311.5,87.6094 M298.5,68.6094 L324.5,68.6094 M311.5,87.6094 L298.5,102.6094 M311.5,87.6094 L324.5,102.6094 " fill="none" style="stroke:#181818;stroke-width:0.5;"/><text fill="#000000" font-family="sans-serif" font-size="14" lengthAdjust="spacing" textLength="36" x="293.5" y="118.6426">Client</text></g><g id="elem_get data"><ellipse cx="54.361" cy="198.5903" fill="#F1F1F1" rx="48.361" ry="15.4809" style="stroke:#181818;stroke-width:0.5;"/><text fill="#000000" font-family="sans-serif" font-size="14" lengthAdjust="spacing" textLength="52" x="26.1681" y="202.9222">get data</text></g><g id="elem_get box"><ellipse cx="182.5247" cy="198.5649" fill="#F1F1F1" rx="44.0247" ry="15.4555" style="stroke:#181818;stroke-width:0.5;"/><text fill="#000000" font-family="sans-serif" font-size="14" lengthAdjust="spacing" textLength="46" x="158.8075" y="202.5112">get box</text></g><g id="elem_get next box"><ellipse cx="170.58" cy="309.7321" fill="#F1F1F1" rx="66.08" ry="15.6227" style="stroke:#181818;stroke-width:0.5;"/><text fill="#000000" font-family="sans-serif" font-size="14" lengthAdjust="spacing" textLength="76" x="129.58" y="314.2487">get next box</text></g><g id="elem_evaluate"><ellipse cx="311.3274" cy="198.6033" fill="#F1F1F1" rx="49.8274" ry="15.494" style="stroke:#181818;stroke-width:0.5;"/><text fill="#000000" font-family="sans-serif" font-size="14" lengthAdjust="spacing" textLength="54" x="281.6067" y="203.0578">evaluate</text></g><g id="elem_get alternate box"><ellipse cx="348.7363" cy="309.8566" fill="#F1F1F1" rx="76.7363" ry="17.7473" style="stroke:#181818;stroke-width:0.5;"/><text fill="#000000" font-family="sans-serif" font-size="14" lengthAdjust="spacing" textLength="106" x="293.2006" y="314.2648">get alternate box</text></g><g id="elem_get modules"><ellipse cx="526.4254" cy="309.7945" fill="#F1F1F1" rx="66.4254" ry="15.6851" style="stroke:#181818;stroke-width:0.5;"/><text fill="#000000" font-family="sans-serif" font-size="14" lengthAdjust="spacing" textLength="77" x="484.9254" y="314.3111">get modules</text></g><g id="elem_get stages"><ellipse cx="526.6908" cy="198.6822" fill="#F1F1F1" rx="58.6908" ry="15.5728" style="stroke:#181818;stroke-width:0.5;"/><text fill="#000000" font-family="sans-serif" font-size="14" lengthAdjust="spacing" textLength="66" x="490.6908" y="203.1988">get stages</text></g><!--MD5=[1774ecd46259c93a9fcddec97da64a70]
link Client to get data--><g id="link_Client_get data"><path d="M293.43,92.0894 C250.29,111.1394 140.82,159.4894 86.33,183.5494 " fill="none" id="Client-to-get data" style="stroke:#181818;stroke-width:1.0;"/><polygon fill="#181818" points="81.55,185.6694,91.3988,185.6865,86.1226,183.6466,88.1624,178.3703,81.55,185.6694" style="stroke:#181818;stroke-width:1.0;"/></g><!--MD5=[6ef2651727630fb341733a0f1f931f84]
link Client to get box--><g id="link_Client_get box"><path d="M293.29,100.1294 C269.16,121.3594 226.77,158.6594 202.01,180.4494 " fill="none" id="Client-to-get box" style="stroke:#181818;stroke-width:1.0;"/><polygon fill="#181818" points="198.19,183.8094,207.5917,180.8754,201.9467,180.5098,202.3124,174.8648,198.19,183.8094" style="stroke:#181818;stroke-width:1.0;"/></g><!--MD5=[13ca1199ab638c12049a0b2bcfddb3ae]
link get box to get next box--><g id="link_get box_get next box"><path d="M180.88,214.3094 C178.77,233.4894 175.07,267.1194 172.7,288.6094 " fill="none" id="get box-to-get next box" style="stroke:#181818;stroke-width:1.0;stroke-dasharray:7.0,7.0;"/><polygon fill="#181818" points="172.13,293.7894,177.1075,285.2909,172.6869,288.8205,169.1572,284.3999,172.13,293.7894" style="stroke:#181818;stroke-width:1.0;"/><text fill="#000000" font-family="sans-serif" font-size="13" lengthAdjust="spacing" textLength="46" x="179.5" y="258.6045">extends</text></g><!--MD5=[e092377e14101f002560775e497ae24f]
link Client to evaluate--><g id="link_Client_evaluate"><path d="M311.5,122.2194 C311.5,140.7994 311.5,162.3894 311.5,177.6894 " fill="none" id="Client-to-evaluate" style="stroke:#181818;stroke-width:1.0;"/><polygon fill="#181818" points="311.5,183.0194,315.5,174.0194,311.5,178.0194,307.5,174.0194,311.5,183.0194" style="stroke:#181818;stroke-width:1.0;"/></g><!--MD5=[bdd14eaf52eed46fccb5b112ce7a65cb]
link evaluate to get alternate box--><g id="link_evaluate_get alternate box"><path d="M316.49,214.3094 C322.84,233.0294 333.88,265.5294 341.18,287.0494 " fill="none" id="evaluate-to-get alternate box" style="stroke:#181818;stroke-width:1.0;"/><polygon fill="#181818" points="342.86,292.0094,343.7643,282.2021,341.2574,287.2732,336.1864,284.7663,342.86,292.0094" style="stroke:#181818;stroke-width:1.0;"/></g><!--MD5=[b1b38752f748b31f01be1c57086a9150]
link evaluate to get next box--><g id="link_evaluate_get next box"><path d="M295.18,213.2794 C279.73,226.1194 255.8,245.7494 234.5,262.1094 C221.5,272.0994 206.71,282.8794 194.63,291.5394 " fill="none" id="evaluate-to-get next box" style="stroke:#181818;stroke-width:1.0;"/><polygon fill="#181818" points="190.31,294.6294,199.9612,292.666,194.3825,291.7286,195.3199,286.1499,190.31,294.6294" style="stroke:#181818;stroke-width:1.0;"/></g><!--MD5=[eed6a99f67db61eb382222b2c0f03369]
link Client to get modules--><g id="link_Client_get modules"><path d="M329.83,103.2494 C370.75,145.9794 469.1,248.6694 509.12,290.4594 " fill="none" id="Client-to-get modules" style="stroke:#181818;stroke-width:1.0;"/><polygon fill="#181818" points="512.81,294.3094,509.4796,285.0407,509.3539,290.6962,503.6984,290.5705,512.81,294.3094" style="stroke:#181818;stroke-width:1.0;"/></g><!--MD5=[19dc8880ddcb6b4300bee89abf7e3860]
link Client to get stages--><g id="link_Client_get stages"><path d="M329.88,93.7894 C354.9,106.9594 401.1,131.2994 440.5,152.1094 C459.34,162.0594 480.49,173.2494 497.11,182.0494 " fill="none" id="Client-to-get stages" style="stroke:#181818;stroke-width:1.0;"/><polygon fill="#181818" points="501.67,184.4594,495.5852,176.715,497.2504,182.1212,491.8442,183.7865,501.67,184.4594" style="stroke:#181818;stroke-width:1.0;"/></g><!--MD5=[291b99d1ea0bb5a3c2b8ec6147566e17]
link get stages to get modules--><g id="link_get stages_get modules"><path d="M526.5,214.3094 C526.5,233.4894 526.5,267.1194 526.5,288.6094 " fill="none" id="get stages-to-get modules" style="stroke:#181818;stroke-width:1.0;stroke-dasharray:7.0,7.0;"/><polygon fill="#181818" points="526.5,293.7894,530.5,284.7894,526.5,288.7894,522.5,284.7894,526.5,293.7894" style="stroke:#181818;stroke-width:1.0;"/><text fill="#000000" font-family="sans-serif" font-size="13" lengthAdjust="spacing" textLength="41" x="527.5" y="258.6045">include</text></g><!--MD5=[76bc6e3ded8c3441834144358eb33ab1]
@startuml

title Server API UCD

actor Client

Client - -> (get data)
Client - -> (get box)
(get box) ..> (get next box) : extends
Client - -> (evaluate)
(evaluate) - -> (get alternate box)
(evaluate) - -> (get next box)
Client - -> (get modules)
Client - -> (get stages)
(get stages) ..> (get modules) : include

@enduml

PlantUML version 1.2022.7(Mon Aug 22 14:01:30 BRT 2022)
(GPL source distribution)
Java Runtime: Java(TM) SE Runtime Environment
JVM: Java HotSpot(TM) 64-Bit Server VM
Default Encoding: Cp1252
Language: en
Country: US
--></g></svg>