<?xml version="1.0" encoding="UTF-8" standalone="no"?><svg xmlns="http://www.w3.org/2000/svg" xmlns:xlink="http://www.w3.org/1999/xlink" contentScriptType="application/ecmascript" contentStyleType="text/css" height="858px" preserveAspectRatio="none" style="width:812px;height:858px;background:#FFFFFF;" version="1.1" viewBox="0 0 812 858" width="812px" zoomAndPan="magnify"><defs/><g><!--MD5=[2b611c2d60e481aa2035053367969193]
cluster Game--><rect fill="#FFFFFF" height="726.5" style="stroke:#000000;stroke-width:1.0;" width="434" x="114.5" y="125.5"/><text fill="#000000" font-family="Verdana" font-size="22" font-weight="bold" lengthAdjust="spacing" textLength="71" x="296" y="147.9209">Game</text><!--MD5=[d0083cf0b2d9f17e335f85bf9624e57e]
cluster User--><rect fill="#FFFFFF" height="356" style="stroke:#000000;stroke-width:1.0;" width="226" x="580.5" y="52"/><text fill="#000000" font-family="Verdana" font-size="22" font-weight="bold" lengthAdjust="spacing" textLength="57" x="665" y="74.4209">User</text><!--MD5=[eedde156c9dded963040b22578af45fa]
class Level--><rect codeLine="6" fill="#FFFFFF" height="133.4844" id="Level" style="stroke:#000000;stroke-width:1.5;" width="207" x="237" y="177.5"/><ellipse cx="319.25" cy="191.5" fill="#FFFFFF" rx="9" ry="9" style="stroke:#000000;stroke-width:1.0;"/><path d="M323.3594,197.5 L315.6406,197.5 L315.6406,185.1094 L323.3594,185.1094 L323.3594,187.2656 L318.0938,187.2656 L318.0938,189.9375 L322.8594,189.9375 L322.8594,192.0938 L318.0938,192.0938 L318.0938,195.3438 L323.3594,195.3438 L323.3594,197.5 Z " fill="#000000"/><text fill="#000000" font-family="Verdana" font-size="14" lengthAdjust="spacing" textLength="35" x="336.75" y="196.3467">Level</text><line style="stroke:#000000;stroke-width:1.5;" x1="238" x2="443" y1="205.5" y2="205.5"/><ellipse cx="248" cy="216.5" fill="#FFFFFF" rx="3" ry="3" style="stroke:#000000;stroke-width:1.0;"/><text fill="#000000" font-family="Verdana" font-size="14" lengthAdjust="spacing" textLength="107" x="255" y="222.4951">id: number (PK)</text><line style="stroke:#000000;stroke-width:1.0;" x1="238" x2="443" y1="229.7969" y2="229.7969"/><ellipse cx="248" cy="240.7969" fill="#000000" rx="3" ry="3" style="stroke:#000000;stroke-width:1.0;"/><text fill="#000000" font-family="Verdana" font-size="14" lengthAdjust="spacing" textLength="87" x="255" y="246.792">name: string</text><ellipse cx="248" cy="257.0938" fill="#000000" rx="3" ry="3" style="stroke:#000000;stroke-width:1.0;"/><text fill="#000000" font-family="Verdana" font-size="14" lengthAdjust="spacing" textLength="95" x="255" y="263.0889">layer: number</text><line style="stroke:#000000;stroke-width:1.0;" x1="238" x2="443" y1="270.3906" y2="270.3906"/><text fill="#000000" font-family="Verdana" font-size="14" lengthAdjust="spacing" textLength="165" x="255" y="287.3857">categories: Document[]</text><polygon fill="#FFFFFF" points="248,292.6875,252,296.6875,248,300.6875,244,296.6875" style="stroke:#000000;stroke-width:1.0;"/><text fill="#000000" font-family="Verdana" font-size="14" lengthAdjust="spacing" textLength="183" x="255" y="303.6826">categories.id: number (FK)</text><!--MD5=[a96594a83e2ecdc78cbf17c2ddf01934]
class Category--><rect codeLine="16" fill="#FFFFFF" height="149.7813" id="Category" style="stroke:#000000;stroke-width:1.5;" width="171" x="147" y="452"/><ellipse cx="197.75" cy="466" fill="#FFFFFF" rx="9" ry="9" style="stroke:#000000;stroke-width:1.0;"/><path d="M201.8594,472 L194.1406,472 L194.1406,459.6094 L201.8594,459.6094 L201.8594,461.7656 L196.5938,461.7656 L196.5938,464.4375 L201.3594,464.4375 L201.3594,466.5938 L196.5938,466.5938 L196.5938,469.8438 L201.8594,469.8438 L201.8594,472 Z " fill="#000000"/><text fill="#000000" font-family="Verdana" font-size="14" lengthAdjust="spacing" textLength="62" x="215.25" y="470.8467">Category</text><line style="stroke:#000000;stroke-width:1.5;" x1="148" x2="317" y1="480" y2="480"/><ellipse cx="158" cy="491" fill="#FFFFFF" rx="3" ry="3" style="stroke:#000000;stroke-width:1.0;"/><text fill="#000000" font-family="Verdana" font-size="14" lengthAdjust="spacing" textLength="107" x="165" y="496.9951">id: number (PK)</text><line style="stroke:#000000;stroke-width:1.0;" x1="148" x2="317" y1="504.2969" y2="504.2969"/><ellipse cx="158" cy="515.2969" fill="#000000" rx="3" ry="3" style="stroke:#000000;stroke-width:1.0;"/><text fill="#000000" font-family="Verdana" font-size="14" lengthAdjust="spacing" textLength="95" x="165" y="521.292">iconUrl: string</text><ellipse cx="158" cy="531.5938" fill="#000000" rx="3" ry="3" style="stroke:#000000;stroke-width:1.0;"/><text fill="#000000" font-family="Verdana" font-size="14" lengthAdjust="spacing" textLength="87" x="165" y="537.5889">name: string</text><ellipse cx="158" cy="547.8906" fill="#000000" rx="3" ry="3" style="stroke:#000000;stroke-width:1.0;"/><text fill="#000000" font-family="Verdana" font-size="14" lengthAdjust="spacing" textLength="125" x="165" y="553.8857">description: string</text><line style="stroke:#000000;stroke-width:1.0;" x1="148" x2="317" y1="561.1875" y2="561.1875"/><text fill="#000000" font-family="Verdana" font-size="14" lengthAdjust="spacing" textLength="129" x="165" y="578.1826">tasks: Document[]</text><polygon fill="#FFFFFF" points="158,583.4844,162,587.4844,158,591.4844,154,587.4844" style="stroke:#000000;stroke-width:1.0;"/><text fill="#000000" font-family="Verdana" font-size="14" lengthAdjust="spacing" textLength="147" x="165" y="594.4795">tasks.id: number (FK)</text><!--MD5=[b34797a66dc35cbf1d65f7e3ca75530e]
class Task--><rect codeLine="27" fill="#FFFFFF" height="166.0781" id="Task" style="stroke:#000000;stroke-width:1.5;" width="154" x="258.5" y="662"/><ellipse cx="315.25" cy="676" fill="#FFFFFF" rx="9" ry="9" style="stroke:#000000;stroke-width:1.0;"/><path d="M319.3594,682 L311.6406,682 L311.6406,669.6094 L319.3594,669.6094 L319.3594,671.7656 L314.0938,671.7656 L314.0938,674.4375 L318.8594,674.4375 L318.8594,676.5938 L314.0938,676.5938 L314.0938,679.8438 L319.3594,679.8438 L319.3594,682 Z " fill="#000000"/><text fill="#000000" font-family="Verdana" font-size="14" lengthAdjust="spacing" textLength="33" x="332.75" y="680.8467">Task</text><line style="stroke:#000000;stroke-width:1.5;" x1="259.5" x2="411.5" y1="690" y2="690"/><ellipse cx="269.5" cy="701" fill="#FFFFFF" rx="3" ry="3" style="stroke:#000000;stroke-width:1.0;"/><text fill="#000000" font-family="Verdana" font-size="14" lengthAdjust="spacing" textLength="107" x="276.5" y="706.9951">id: number (PK)</text><line style="stroke:#000000;stroke-width:1.0;" x1="259.5" x2="411.5" y1="714.2969" y2="714.2969"/><ellipse cx="269.5" cy="725.2969" fill="#000000" rx="3" ry="3" style="stroke:#000000;stroke-width:1.0;"/><text fill="#000000" font-family="Verdana" font-size="14" lengthAdjust="spacing" textLength="87" x="276.5" y="731.292">name: string</text><ellipse cx="269.5" cy="741.5938" fill="#000000" rx="3" ry="3" style="stroke:#000000;stroke-width:1.0;"/><text fill="#000000" font-family="Verdana" font-size="14" lengthAdjust="spacing" textLength="125" x="276.5" y="747.5889">description: string</text><line style="stroke:#000000;stroke-width:1.0;" x1="259.5" x2="411.5" y1="754.8906" y2="754.8906"/><ellipse cx="269.5" cy="765.8906" fill="#000000" rx="3" ry="3" style="stroke:#000000;stroke-width:1.0;"/><text fill="#000000" font-family="Verdana" font-size="14" lengthAdjust="spacing" textLength="106" x="276.5" y="771.8857">nodes: object[]</text><ellipse cx="269.5" cy="782.1875" fill="#000000" rx="3" ry="3" style="stroke:#000000;stroke-width:1.0;"/><text fill="#000000" font-family="Verdana" font-size="14" lengthAdjust="spacing" textLength="121" x="276.5" y="788.1826">nodes.title: string</text><ellipse cx="269.5" cy="798.4844" fill="#000000" rx="3" ry="3" style="stroke:#000000;stroke-width:1.0;"/><text fill="#000000" font-family="Verdana" font-size="14" lengthAdjust="spacing" textLength="126" x="276.5" y="804.4795">nodes.type: string</text><ellipse cx="269.5" cy="814.7813" fill="#000000" rx="3" ry="3" style="stroke:#000000;stroke-width:1.0;"/><text fill="#000000" font-family="Verdana" font-size="14" lengthAdjust="spacing" textLength="130" x="276.5" y="820.7764">nodes.data: object</text><!--MD5=[e54af2a3dfd72988f8d17c8016ff295d]
class Box--><rect codeLine="39" fill="#FFFFFF" height="133.4844" id="Box" style="stroke:#000000;stroke-width:1.5;" width="171" x="353" y="460.5"/><ellipse cx="421.75" cy="474.5" fill="#FFFFFF" rx="9" ry="9" style="stroke:#000000;stroke-width:1.0;"/><path d="M425.8594,480.5 L418.1406,480.5 L418.1406,468.1094 L425.8594,468.1094 L425.8594,470.2656 L420.5938,470.2656 L420.5938,472.9375 L425.3594,472.9375 L425.3594,475.0938 L420.5938,475.0938 L420.5938,478.3438 L425.8594,478.3438 L425.8594,480.5 Z " fill="#000000"/><text fill="#000000" font-family="Verdana" font-size="14" lengthAdjust="spacing" textLength="26" x="439.25" y="479.3467">Box</text><line style="stroke:#000000;stroke-width:1.5;" x1="354" x2="523" y1="488.5" y2="488.5"/><ellipse cx="364" cy="499.5" fill="#FFFFFF" rx="3" ry="3" style="stroke:#000000;stroke-width:1.0;"/><text fill="#000000" font-family="Verdana" font-size="14" lengthAdjust="spacing" textLength="107" x="371" y="505.4951">id: number (PK)</text><line style="stroke:#000000;stroke-width:1.0;" x1="354" x2="523" y1="512.7969" y2="512.7969"/><ellipse cx="364" cy="523.7969" fill="#000000" rx="3" ry="3" style="stroke:#000000;stroke-width:1.0;"/><text fill="#000000" font-family="Verdana" font-size="14" lengthAdjust="spacing" textLength="80" x="371" y="529.792">try: number</text><line style="stroke:#000000;stroke-width:1.0;" x1="354" x2="523" y1="537.0938" y2="537.0938"/><text fill="#000000" font-family="Verdana" font-size="14" lengthAdjust="spacing" textLength="129" x="371" y="554.0889">tasks: Document[]</text><polygon fill="#FFFFFF" points="364,559.3906,368,563.3906,364,567.3906,360,563.3906" style="stroke:#000000;stroke-width:1.0;"/><text fill="#000000" font-family="Verdana" font-size="14" lengthAdjust="spacing" textLength="147" x="371" y="570.3857">tasks.id: number (FK)</text><text fill="#000000" font-family="Verdana" font-size="14" lengthAdjust="spacing" textLength="129" x="371" y="586.6826">task.right: boolean</text><!--MD5=[3fd616f346a44cd59a91eb10b19e157c]
class User--><rect codeLine="61" fill="#FFFFFF" height="296.4531" id="User" style="stroke:#000000;stroke-width:1.5;" width="194" x="596.5" y="96"/><ellipse cx="673.75" cy="110" fill="#FFFFFF" rx="9" ry="9" style="stroke:#000000;stroke-width:1.0;"/><path d="M677.8594,116 L670.1406,116 L670.1406,103.6094 L677.8594,103.6094 L677.8594,105.7656 L672.5938,105.7656 L672.5938,108.4375 L677.3594,108.4375 L677.3594,110.5938 L672.5938,110.5938 L672.5938,113.8438 L677.8594,113.8438 L677.8594,116 Z " fill="#000000"/><text fill="#000000" font-family="Verdana" font-size="14" lengthAdjust="spacing" textLength="32" x="691.25" y="114.8467">User</text><line style="stroke:#000000;stroke-width:1.5;" x1="597.5" x2="789.5" y1="124" y2="124"/><ellipse cx="607.5" cy="135" fill="#FFFFFF" rx="3" ry="3" style="stroke:#000000;stroke-width:1.0;"/><text fill="#000000" font-family="Verdana" font-size="14" lengthAdjust="spacing" textLength="107" x="614.5" y="140.9951">id: number (PK)</text><line style="stroke:#000000;stroke-width:1.0;" x1="597.5" x2="789.5" y1="148.2969" y2="148.2969"/><ellipse cx="607.5" cy="159.2969" fill="#000000" rx="3" ry="3" style="stroke:#000000;stroke-width:1.0;"/><text fill="#000000" font-family="Verdana" font-size="14" lengthAdjust="spacing" textLength="84" x="614.5" y="165.292">email: string</text><ellipse cx="607.5" cy="175.5938" fill="#000000" rx="3" ry="3" style="stroke:#000000;stroke-width:1.0;"/><text fill="#000000" font-family="Verdana" font-size="14" lengthAdjust="spacing" textLength="87" x="614.5" y="181.5889">name: string</text><ellipse cx="607.5" cy="191.8906" fill="#000000" rx="3" ry="3" style="stroke:#000000;stroke-width:1.0;"/><text fill="#000000" font-family="Verdana" font-size="14" lengthAdjust="spacing" textLength="87" x="614.5" y="197.8857">sex: number</text><ellipse cx="607.5" cy="208.1875" fill="#000000" rx="3" ry="3" style="stroke:#000000;stroke-width:1.0;"/><text fill="#000000" font-family="Verdana" font-size="14" lengthAdjust="spacing" textLength="103" x="614.5" y="214.1826">birthday: string</text><ellipse cx="607.5" cy="224.4844" fill="#000000" rx="3" ry="3" style="stroke:#000000;stroke-width:1.0;"/><text fill="#000000" font-family="Verdana" font-size="14" lengthAdjust="spacing" textLength="115" x="614.5" y="230.4795">password: string</text><ellipse cx="607.5" cy="240.7813" fill="#000000" rx="3" ry="3" style="stroke:#000000;stroke-width:1.0;"/><text fill="#000000" font-family="Verdana" font-size="14" lengthAdjust="spacing" textLength="93" x="614.5" y="246.7764">tries: number</text><line style="stroke:#000000;stroke-width:1.0;" x1="597.5" x2="789.5" y1="254.0781" y2="254.0781"/><text fill="#000000" font-family="Verdana" font-size="14" lengthAdjust="spacing" textLength="113" x="614.5" y="271.0732">level: Document</text><polygon fill="#FFFFFF" points="607.5,276.375,611.5,280.375,607.5,284.375,603.5,280.375" style="stroke:#000000;stroke-width:1.0;"/><text fill="#000000" font-family="Verdana" font-size="14" lengthAdjust="spacing" textLength="141" x="614.5" y="287.3701">level.id: number (FK)</text><text fill="#000000" font-family="Verdana" font-size="14" lengthAdjust="spacing" textLength="142" x="614.5" y="303.667">category: Document</text><polygon fill="#FFFFFF" points="607.5,308.9688,611.5,312.9688,607.5,316.9688,603.5,312.9688" style="stroke:#000000;stroke-width:1.0;"/><text fill="#000000" font-family="Verdana" font-size="14" lengthAdjust="spacing" textLength="170" x="614.5" y="319.9639">category.id: number (FK)</text><text fill="#000000" font-family="Verdana" font-size="14" lengthAdjust="spacing" textLength="107" x="614.5" y="336.2607">box: Document</text><polygon fill="#FFFFFF" points="607.5,341.5625,611.5,345.5625,607.5,349.5625,603.5,345.5625" style="stroke:#000000;stroke-width:1.0;"/><text fill="#000000" font-family="Verdana" font-size="14" lengthAdjust="spacing" textLength="135" x="614.5" y="352.5576">box.id: number (FK)</text><text fill="#000000" font-family="Verdana" font-size="14" lengthAdjust="spacing" textLength="138" x="614.5" y="368.8545">history: Document[]</text><polygon fill="#FFFFFF" points="607.5,374.1563,611.5,378.1563,607.5,382.1563,603.5,378.1563" style="stroke:#000000;stroke-width:1.0;"/><text fill="#000000" font-family="Verdana" font-size="14" lengthAdjust="spacing" textLength="93" x="614.5" y="385.1514">history.id (FK)</text><path d="M11,11 L11,36.1328 L234,36.1328 L234,21 L224,11 L11,11 " fill="#FFFFFF" style="stroke:#000000;stroke-width:1.0;"/><path d="M224,11 L224,21 L234,21 L224,11 " fill="#FFFFFF" style="stroke:#000000;stroke-width:1.0;"/><text fill="#000000" font-family="Verdana" font-size="13" font-style="italic" lengthAdjust="spacing" textLength="202" x="17" y="28.0669">Considering a NoSQL db engine</text><!--MD5=[ddcc3d7ea620b7be58117306ecd5be67]
link Level to Category--><path codeLine="49" d="M264,318.71 C264,318.71 264,443.76 264,443.76 " fill="none" id="Level-Category" style="stroke:#000000;stroke-width:1.0;"/><line style="stroke:#000000;stroke-width:1.0;" x1="264" x2="270" y1="443.76" y2="451.76"/><line style="stroke:#000000;stroke-width:1.0;" x1="264" x2="258" y1="443.76" y2="451.76"/><line style="stroke:#000000;stroke-width:1.0;" x1="264" x2="264" y1="443.76" y2="451.76"/><ellipse cx="264" cy="437.76" rx="4" ry="4" style="stroke:#000000;stroke-width:1.0;fill:none;"/><line style="stroke:#000000;stroke-width:1.0;fill:none;" x1="260" x2="268" y1="314.71" y2="314.71"/><line style="stroke:#000000;stroke-width:1.0;fill:none;" x1="260" x2="268" y1="317.71" y2="317.71"/><line style="stroke:#000000;stroke-width:1.0;fill:none;" x1="264" x2="264" y1="318.71" y2="310.71"/><!--MD5=[04a2db5f0875e86738de0296bf8c209b]
link Category to Task--><path codeLine="50" d="M288.25,610.02 C288.25,610.02 288.25,654 288.25,654 " fill="none" id="Category-Task" style="stroke:#000000;stroke-width:1.0;"/><line style="stroke:#000000;stroke-width:1.0;" x1="288.25" x2="294.25" y1="654" y2="662"/><line style="stroke:#000000;stroke-width:1.0;" x1="288.25" x2="282.25" y1="654" y2="662"/><line style="stroke:#000000;stroke-width:1.0;" x1="288.25" x2="288.25" y1="654" y2="662"/><ellipse cx="288.25" cy="648" rx="4" ry="4" style="stroke:#000000;stroke-width:1.0;fill:none;"/><line style="stroke:#000000;stroke-width:1.0;fill:none;" x1="284.25" x2="292.25" y1="606.02" y2="606.02"/><line style="stroke:#000000;stroke-width:1.0;fill:none;" x1="284.25" x2="292.25" y1="609.02" y2="609.02"/><line style="stroke:#000000;stroke-width:1.0;fill:none;" x1="288.25" x2="288.25" y1="610.02" y2="602.02"/><!--MD5=[c50fbf969dc83bb8230604bf586cccbb]
link Box to Category--><path codeLine="51" d="M344.93,527 C344.93,527 326.14,527 326.14,527 " fill="none" id="Box-Category" style="stroke:#000000;stroke-width:1.0;"/><line style="stroke:#000000;stroke-width:1.0;" x1="322.14" x2="322.14" y1="531" y2="523"/><line style="stroke:#000000;stroke-width:1.0;" x1="325.14" x2="325.14" y1="531" y2="523"/><line style="stroke:#000000;stroke-width:1.0;" x1="326.14" x2="318.14" y1="527" y2="527"/><line style="stroke:#000000;stroke-width:1.0;" x1="344.93" x2="352.93" y1="527" y2="521"/><line style="stroke:#000000;stroke-width:1.0;" x1="344.93" x2="352.93" y1="527" y2="533"/><line style="stroke:#000000;stroke-width:1.0;" x1="344.93" x2="352.93" y1="527" y2="527"/><ellipse cx="338.93" cy="527" rx="4" ry="4" style="stroke:#000000;stroke-width:1.0;fill:none;"/><!--MD5=[ed83b062af227cf509484a686c404a37]
link Box to Task--><path codeLine="52" d="M382.75,601.59 C382.75,601.59 382.75,653.86 382.75,653.86 " fill="none" id="Box-Task" style="stroke:#000000;stroke-width:1.0;"/><line style="stroke:#000000;stroke-width:1.0;" x1="382.75" x2="388.75" y1="653.86" y2="661.86"/><line style="stroke:#000000;stroke-width:1.0;" x1="382.75" x2="376.75" y1="653.86" y2="661.86"/><line style="stroke:#000000;stroke-width:1.0;" x1="382.75" x2="382.75" y1="653.86" y2="661.86"/><ellipse cx="382.75" cy="647.86" rx="4" ry="4" style="stroke:#000000;stroke-width:1.0;fill:none;"/><line style="stroke:#000000;stroke-width:1.0;fill:none;" x1="378.75" x2="386.75" y1="597.59" y2="597.59"/><line style="stroke:#000000;stroke-width:1.0;fill:none;" x1="378.75" x2="386.75" y1="600.59" y2="600.59"/><line style="stroke:#000000;stroke-width:1.0;fill:none;" x1="382.75" x2="382.75" y1="601.59" y2="593.59"/><!--MD5=[56ca99f4b0a26907a6287f2ada71358f]
link GMN323 to Game--><path d="M122.5,36.31 C122.5,47.7075 122.5,65.7662 122.5,86.5912 C122.5,97.0037 122.5,108.1078 122.5,119.4166 C122.5,120.8302 122.5,122.2469 122.5,123.666 C122.5,124.0207 122.5,124.3756 122.5,124.7307 " fill="none" id="GMN323-Game" style="stroke:#000000;stroke-width:1.0;stroke-dasharray:7.0,7.0;"/><!--MD5=[594bfbd9f471216885001b4108416bf1]
link User to Level--><path codeLine="81" d="M588.11,244 C588.11,244 452.06,244 452.06,244 " fill="none" id="User-Level" style="stroke:#000000;stroke-width:1.0;"/><line style="stroke:#000000;stroke-width:1.0;" x1="455.06" x2="444.06" y1="244" y2="244"/><ellipse cx="455.06" cy="244" rx="4" ry="4" style="stroke:#000000;stroke-width:1.0;fill:none;"/><line style="stroke:#000000;stroke-width:1.0;fill:none;" x1="448.06" x2="448.06" y1="248" y2="240"/><line style="stroke:#000000;stroke-width:1.0;fill:none;" x1="588.11" x2="596.11" y1="244" y2="238"/><line style="stroke:#000000;stroke-width:1.0;fill:none;" x1="588.11" x2="596.11" y1="244" y2="250"/><line style="stroke:#000000;stroke-width:1.0;fill:none;" x1="588.11" x2="596.11" y1="244" y2="244"/><ellipse cx="582.11" cy="244" rx="4" ry="4" style="stroke:#000000;stroke-width:1.0;fill:none;"/><!--MD5=[0004528d1fd0f0ebdf90658bcc01e426]
link User to Category--><path codeLine="82" d="M588.32,331 C588.32,331 291,331 291,331 C291,331 291,443.78 291,443.78 " fill="none" id="User-Category" style="stroke:#000000;stroke-width:1.0;"/><line style="stroke:#000000;stroke-width:1.0;" x1="291" x2="291" y1="440.78" y2="451.78"/><ellipse cx="291" cy="440.78" rx="4" ry="4" style="stroke:#000000;stroke-width:1.0;fill:none;"/><line style="stroke:#000000;stroke-width:1.0;fill:none;" x1="295" x2="287" y1="447.78" y2="447.78"/><line style="stroke:#000000;stroke-width:1.0;fill:none;" x1="588.32" x2="596.32" y1="331" y2="325"/><line style="stroke:#000000;stroke-width:1.0;fill:none;" x1="588.32" x2="596.32" y1="331" y2="337"/><line style="stroke:#000000;stroke-width:1.0;fill:none;" x1="588.32" x2="596.32" y1="331" y2="331"/><ellipse cx="582.32" cy="331" rx="4" ry="4" style="stroke:#000000;stroke-width:1.0;fill:none;"/><!--MD5=[c5ca0193d6717508f4f29c8bf8d8a670]
link User to Box--><path codeLine="83" d="M588.41,352 C588.41,352 470.67,352 470.67,352 C470.67,352 470.67,452.34 470.67,452.34 " fill="none" id="User-Box" style="stroke:#000000;stroke-width:1.0;"/><line style="stroke:#000000;stroke-width:1.0;" x1="470.67" x2="470.67" y1="449.34" y2="460.34"/><ellipse cx="470.67" cy="449.34" rx="4" ry="4" style="stroke:#000000;stroke-width:1.0;fill:none;"/><line style="stroke:#000000;stroke-width:1.0;fill:none;" x1="474.67" x2="466.67" y1="456.34" y2="456.34"/><line style="stroke:#000000;stroke-width:1.0;fill:none;" x1="592.41" x2="592.41" y1="348" y2="356"/><line style="stroke:#000000;stroke-width:1.0;fill:none;" x1="589.41" x2="589.41" y1="348" y2="356"/><line style="stroke:#000000;stroke-width:1.0;fill:none;" x1="588.41" x2="596.41" y1="352" y2="352"/><!--MD5=[c5ca0193d6717508f4f29c8bf8d8a670]
link User to Box--><path codeLine="84" d="M588.28,372 C588.28,372 497.33,372 497.33,372 C497.33,372 497.33,452.37 497.33,452.37 " fill="none" id="User-Box-1" style="stroke:#000000;stroke-width:1.0;"/><line style="stroke:#000000;stroke-width:1.0;" x1="497.33" x2="503.33" y1="452.37" y2="460.37"/><line style="stroke:#000000;stroke-width:1.0;" x1="497.33" x2="491.33" y1="452.37" y2="460.37"/><line style="stroke:#000000;stroke-width:1.0;" x1="497.33" x2="497.33" y1="452.37" y2="460.37"/><ellipse cx="497.33" cy="446.37" rx="4" ry="4" style="stroke:#000000;stroke-width:1.0;fill:none;"/><line style="stroke:#000000;stroke-width:1.0;fill:none;" x1="592.28" x2="592.28" y1="368" y2="376"/><line style="stroke:#000000;stroke-width:1.0;fill:none;" x1="589.28" x2="589.28" y1="368" y2="376"/><line style="stroke:#000000;stroke-width:1.0;fill:none;" x1="588.28" x2="596.28" y1="372" y2="372"/><!--MD5=[c35e71862450e6dabd8451b07c1fb447]
@startuml
skinparam linetype ortho
!theme plain

package Game <<Rectangle>> {

  entity Level {
    + id: number (PK)
    - -
    * name: string
    * layer: number
    - -
    categories: Document[]
    # categories.id: number (FK)
  }

  entity Category {
    + id: number (PK)
    - -
    * iconUrl: string
    * name: string
    * description: string
    - -
    tasks: Document[]
    # tasks.id: number (FK)
  }

  entity Task {
    + id: number (PK)
    - -
    * name: string
    * description: string
    - -
    * nodes: object[]
    * nodes.title: string
    * nodes.type: string
    * nodes.data: object
  }

  entity Box {
    + id: number (PK)
    - -
    * try: number
    - -
    tasks: Document[]
    # tasks.id: number (FK)
    task.right: boolean
  }

  Level ||-d-o{ Category
  Category ||-d-o{ Task
  Box }o-r-|| Category
  Box ||-d-o{ Task
}

note top of Game
    <i>Considering a NoSQL db engine</i>
end note

package User <<Rectangle>> {

  entity User {
    + id: number (PK)
    - -
    * email: string
    * name: string
    * sex: number
    * birthday: string
    * password: string
    * tries: number
    - -
    level: Document
    # level.id: number (FK)
    category: Document
    # category.id: number (FK)
    box: Document
    # box.id: number (FK)
    history: Document[]
    # history.id (FK)
  }

  User }o-o| Level
  User }o-o| Category
  User ||-o| Box
  User ||-o{ Box

}

@enduml

@startuml
skinparam linetype ortho







<style>
  root {
    BackgroundColor white
    FontColor black
    FontName Verdana
    HyperLinkColor blue
    LineColor black
    LineThickness 1
    Margin 5
  }
  caption {
    LineThickness 0
  }
  footer {
    LineThickness 0
  }
  header {
    LineThickness 0
  }
  node {
    MaximumWidth 300
  }
  title {
    FontSize 22
    LineThickness 0
  }
</style>

skinparam ArrowLollipopColor black
skinparam BackgroundColor white
skinparam DefaultFontName Verdana
skinparam DefaultMonospacedFontName Courier
skinparam LifelineStrategy nosolid
skinparam ParticipantPadding 10
skinparam SequenceLifeLineBorderColor black
skinparam Shadowing false
skinparam UseBetaStyle true

skinparam Activity {
  BackgroundColor white
  BarColor black
  BorderColor black
  FontColor black
  FontName Verdana
}
skinparam Boundary {
  FontColor black
}
skinparam Box {
  Padding 5
}
skinparam CircledCharacter {
  FontColor black
  FontName Courier
  Radius 9
}
skinparam Class {
  BackgroundColor white
  BorderColor black
  FontColor black
  FontName Verdana
}
skinparam ClassAttribute {
  FontColor black
  FontName Verdana
}
skinparam ClassStereotype {
  FontColor black
  FontName Verdana
}
skinparam Footer {
  FontColor black
  FontName Verdana
}
skinparam Header {
  FontColor black
  FontName Verdana
}
skinparam Hyperlink {
  Color blue
}
skinparam IconPackage {
  Color black
  BackgroundColor white
}
skinparam IconPrivate {
  Color black
  BackgroundColor white
}
skinparam IconProtected {
  Color black
  BackgroundColor white
}
skinparam IconPublic {
  Color black
  BackgroundColor white
}
skinparam Note {
  FontColor black
  FontName Verdana
}
skinparam Object {
  BorderColor black
}
skinparam Package {
  BorderColor black
  FontColor black
  FontName Verdana
}
skinparam State {
  BackgroundColor white
  BorderColor black
}
skinparam StereotypeA {
  BackgroundColor white
  BorderColor black
}
skinparam StereotypeC {
  BackgroundColor white
  BorderColor black
}
skinparam StereotypeE {
  BackgroundColor white
  BorderColor black
}
skinparam StereotypeI {
  BackgroundColor white
  BorderColor black
}
skinparam StereotypeN {
  BackgroundColor white
  BorderColor black
}
skinparam UseCaseStereoType {
  FontColor black
  FontName Verdana
}

package Game <<Rectangle>> {

  entity Level {
    + id: number (PK)
    - -
    * name: string
    * layer: number
    - -
    categories: Document[]
    # categories.id: number (FK)
  }

  entity Category {
    + id: number (PK)
    - -
    * iconUrl: string
    * name: string
    * description: string
    - -
    tasks: Document[]
    # tasks.id: number (FK)
  }

  entity Task {
    + id: number (PK)
    - -
    * name: string
    * description: string
    - -
    * nodes: object[]
    * nodes.title: string
    * nodes.type: string
    * nodes.data: object
  }

  entity Box {
    + id: number (PK)
    - -
    * try: number
    - -
    tasks: Document[]
    # tasks.id: number (FK)
    task.right: boolean
  }

  Level ||-d-o{ Category
  Category ||-d-o{ Task
  Box }o-r-|| Category
  Box ||-d-o{ Task
}

note top of Game
    <i>Considering a NoSQL db engine</i>
end note

package User <<Rectangle>> {

  entity User {
    + id: number (PK)
    - -
    * email: string
    * name: string
    * sex: number
    * birthday: string
    * password: string
    * tries: number
    - -
    level: Document
    # level.id: number (FK)
    category: Document
    # category.id: number (FK)
    box: Document
    # box.id: number (FK)
    history: Document[]
    # history.id (FK)
  }

  User }o-o| Level
  User }o-o| Category
  User ||-o| Box
  User ||-o{ Box

}

@enduml

PlantUML version 1.2022.0(Tue Jan 11 16:16:42 UTC 2022)
(GPL source distribution)
Java Runtime: OpenJDK Runtime Environment
JVM: OpenJDK 64-Bit Server VM
Default Encoding: UTF-8
Language: en
Country: null
--></g></svg>