<?xml version="1.0" encoding="UTF-8" standalone="no"?><svg xmlns="http://www.w3.org/2000/svg" xmlns:xlink="http://www.w3.org/1999/xlink" contentScriptType="application/ecmascript" contentStyleType="text/css" height="1142px" preserveAspectRatio="none" style="width:702px;height:1142px;background:#FFFFFF;" version="1.1" viewBox="0 0 702 1142" width="702px" zoomAndPan="magnify"><defs/><g><!--MD5=[2b611c2d60e481aa2035053367969193]
cluster Game--><rect fill="#FFFFFF" height="1124" style="stroke:#000000;stroke-width:1.0;" width="426" x="12" y="12.1191"/><text fill="#000000" font-family="Verdana" font-size="22" font-weight="bold" lengthAdjust="spacing" textLength="71" x="189.5" y="36.2373">Game</text><!--MD5=[d0083cf0b2d9f17e335f85bf9624e57e]
cluster User--><rect fill="#FFFFFF" height="368" style="stroke:#000000;stroke-width:1.0;" width="234" x="462" y="168.1191"/><text fill="#000000" font-family="Verdana" font-size="22" font-weight="bold" lengthAdjust="spacing" textLength="57" x="550.5" y="192.2373">User</text><!--MD5=[b6dcce5e5ef3c84b0b048d11301373dd]
class Game--><rect codeLine="9" fill="#FFFFFF" height="95.0439" id="Game" style="stroke:#000000;stroke-width:1.5;" width="179" x="135.5" y="57.1191"/><ellipse cx="201.25" cy="71.1191" fill="#FFFFFF" rx="9" ry="9" style="stroke:#000000;stroke-width:1.0;"/><path d="M196.9844,77.1191 L196.9844,64.9473 L206.0156,64.9473 L206.0156,67.0098 L199.4375,67.0098 L199.4375,69.7129 L205.5469,69.7129 L205.5469,71.7598 L199.4375,71.7598 L199.4375,75.0723 L206.25,75.0723 L206.25,77.1191 L196.9844,77.1191 Z " fill="#000000"/><text fill="#000000" font-family="Verdana" font-size="14" lengthAdjust="spacing" textLength="40" x="218.75" y="76.687">Game</text><line style="stroke:#000000;stroke-width:1.5;" x1="136.5" x2="313.5" y1="85.1191" y2="85.1191"/><ellipse cx="146.5" cy="96.1191" fill="#FFFFFF" rx="3" ry="3" style="stroke:#000000;stroke-width:1.0;"/><text fill="#000000" font-family="Verdana" font-size="14" lengthAdjust="spacing" textLength="112" x="153.5" y="103.1943">id: number (PK)</text><line style="stroke:#000000;stroke-width:1.0;" x1="136.5" x2="313.5" y1="110.1338" y2="110.1338"/><text fill="#000000" font-family="Verdana" font-size="14" lengthAdjust="spacing" textLength="133" x="153.5" y="128.209">levels: Document[]</text><polygon fill="#FFFFFF" points="146.5,133.1484,150.5,137.1484,146.5,141.1484,142.5,137.1484" style="stroke:#000000;stroke-width:1.0;"/><text fill="#000000" font-family="Verdana" font-size="14" lengthAdjust="spacing" textLength="155" x="153.5" y="145.2236">levels.id: number (FK)</text><!--MD5=[eedde156c9dded963040b22578af45fa]
class Level--><rect codeLine="16" fill="#FFFFFF" height="137.0732" id="Level" style="stroke:#000000;stroke-width:1.5;" width="213" x="118.5" y="298.1191"/><ellipse cx="203.75" cy="312.1191" fill="#FFFFFF" rx="9" ry="9" style="stroke:#000000;stroke-width:1.0;"/><path d="M199.4844,318.1191 L199.4844,305.9473 L208.5156,305.9473 L208.5156,308.0098 L201.9375,308.0098 L201.9375,310.7129 L208.0469,310.7129 L208.0469,312.7598 L201.9375,312.7598 L201.9375,316.0723 L208.75,316.0723 L208.75,318.1191 L199.4844,318.1191 Z " fill="#000000"/><text fill="#000000" font-family="Verdana" font-size="14" lengthAdjust="spacing" textLength="35" x="221.25" y="317.687">Level</text><line style="stroke:#000000;stroke-width:1.5;" x1="119.5" x2="330.5" y1="326.1191" y2="326.1191"/><ellipse cx="129.5" cy="337.1191" fill="#FFFFFF" rx="3" ry="3" style="stroke:#000000;stroke-width:1.0;"/><text fill="#000000" font-family="Verdana" font-size="14" lengthAdjust="spacing" textLength="112" x="136.5" y="344.1943">id: number (PK)</text><line style="stroke:#000000;stroke-width:1.0;" x1="119.5" x2="330.5" y1="351.1338" y2="351.1338"/><ellipse cx="129.5" cy="362.1338" fill="#FFFFFF" rx="3" ry="3" style="stroke:#000000;stroke-width:1.0;"/><text fill="#000000" font-family="Verdana" font-size="14" lengthAdjust="spacing" textLength="90" x="136.5" y="369.209">name: string</text><ellipse cx="129.5" cy="379.1484" fill="#FFFFFF" rx="3" ry="3" style="stroke:#000000;stroke-width:1.0;"/><text fill="#000000" font-family="Verdana" font-size="14" lengthAdjust="spacing" textLength="98" x="136.5" y="386.2236">layer: number</text><line style="stroke:#000000;stroke-width:1.0;" x1="119.5" x2="330.5" y1="393.1631" y2="393.1631"/><text fill="#000000" font-family="Verdana" font-size="14" lengthAdjust="spacing" textLength="167" x="136.5" y="411.2383">categories: Document[]</text><polygon fill="#FFFFFF" points="129.5,416.1777,133.5,420.1777,129.5,424.1777,125.5,420.1777" style="stroke:#000000;stroke-width:1.0;"/><text fill="#000000" font-family="Verdana" font-size="14" lengthAdjust="spacing" textLength="189" x="136.5" y="428.2529">categories.id: number (FK)</text><!--MD5=[a96594a83e2ecdc78cbf17c2ddf01934]
class Category--><rect codeLine="26" fill="#FFFFFF" height="171.1025" id="Category" style="stroke:#000000;stroke-width:1.5;" width="179" x="28.5" y="580.1191"/><ellipse cx="82.25" cy="594.1191" fill="#FFFFFF" rx="9" ry="9" style="stroke:#000000;stroke-width:1.0;"/><path d="M77.9844,600.1191 L77.9844,587.9473 L87.0156,587.9473 L87.0156,590.0098 L80.4375,590.0098 L80.4375,592.7129 L86.5469,592.7129 L86.5469,594.7598 L80.4375,594.7598 L80.4375,598.0723 L87.25,598.0723 L87.25,600.1191 L77.9844,600.1191 Z " fill="#000000"/><text fill="#000000" font-family="Verdana" font-size="14" lengthAdjust="spacing" textLength="64" x="99.75" y="599.687">Category</text><line style="stroke:#000000;stroke-width:1.5;" x1="29.5" x2="206.5" y1="608.1191" y2="608.1191"/><ellipse cx="39.5" cy="619.1191" fill="#FFFFFF" rx="3" ry="3" style="stroke:#000000;stroke-width:1.0;"/><text fill="#000000" font-family="Verdana" font-size="14" lengthAdjust="spacing" textLength="112" x="46.5" y="626.1943">id: number (PK)</text><line style="stroke:#000000;stroke-width:1.0;" x1="29.5" x2="206.5" y1="633.1338" y2="633.1338"/><ellipse cx="39.5" cy="644.1338" fill="#FFFFFF" rx="3" ry="3" style="stroke:#000000;stroke-width:1.0;"/><text fill="#000000" font-family="Verdana" font-size="14" lengthAdjust="spacing" textLength="99" x="46.5" y="651.209">iconUrl: string</text><ellipse cx="39.5" cy="661.1484" fill="#FFFFFF" rx="3" ry="3" style="stroke:#000000;stroke-width:1.0;"/><text fill="#000000" font-family="Verdana" font-size="14" lengthAdjust="spacing" textLength="90" x="46.5" y="668.2236">name: string</text><ellipse cx="39.5" cy="678.1631" fill="#FFFFFF" rx="3" ry="3" style="stroke:#000000;stroke-width:1.0;"/><text fill="#000000" font-family="Verdana" font-size="14" lengthAdjust="spacing" textLength="129" x="46.5" y="685.2383">description: string</text><ellipse cx="39.5" cy="695.1777" fill="#FFFFFF" rx="3" ry="3" style="stroke:#000000;stroke-width:1.0;"/><text fill="#000000" font-family="Verdana" font-size="14" lengthAdjust="spacing" textLength="98" x="46.5" y="702.2529">layer: number</text><line style="stroke:#000000;stroke-width:1.0;" x1="29.5" x2="206.5" y1="709.1924" y2="709.1924"/><text fill="#000000" font-family="Verdana" font-size="14" lengthAdjust="spacing" textLength="133" x="46.5" y="727.2676">tasks: Document[]</text><polygon fill="#FFFFFF" points="39.5,732.207,43.5,736.207,39.5,740.207,35.5,736.207" style="stroke:#000000;stroke-width:1.0;"/><text fill="#000000" font-family="Verdana" font-size="14" lengthAdjust="spacing" textLength="155" x="46.5" y="744.2822">tasks.id: number (FK)</text><!--MD5=[b34797a66dc35cbf1d65f7e3ca75530e]
class Task--><rect codeLine="38" fill="#FFFFFF" height="137.0732" id="Task" style="stroke:#000000;stroke-width:1.5;" width="184" x="133" y="811.1191"/><ellipse cx="204.75" cy="825.1191" fill="#FFFFFF" rx="9" ry="9" style="stroke:#000000;stroke-width:1.0;"/><path d="M200.4844,831.1191 L200.4844,818.9473 L209.5156,818.9473 L209.5156,821.0098 L202.9375,821.0098 L202.9375,823.7129 L209.0469,823.7129 L209.0469,825.7598 L202.9375,825.7598 L202.9375,829.0723 L209.75,829.0723 L209.75,831.1191 L200.4844,831.1191 Z " fill="#000000"/><text fill="#000000" font-family="Verdana" font-size="14" lengthAdjust="spacing" textLength="33" x="222.25" y="830.687">Task</text><line style="stroke:#000000;stroke-width:1.5;" x1="134" x2="316" y1="839.1191" y2="839.1191"/><ellipse cx="144" cy="850.1191" fill="#FFFFFF" rx="3" ry="3" style="stroke:#000000;stroke-width:1.0;"/><text fill="#000000" font-family="Verdana" font-size="14" lengthAdjust="spacing" textLength="112" x="151" y="857.1943">id: number (PK)</text><line style="stroke:#000000;stroke-width:1.0;" x1="134" x2="316" y1="864.1338" y2="864.1338"/><ellipse cx="144" cy="875.1338" fill="#FFFFFF" rx="3" ry="3" style="stroke:#000000;stroke-width:1.0;"/><text fill="#000000" font-family="Verdana" font-size="14" lengthAdjust="spacing" textLength="90" x="151" y="882.209">name: string</text><ellipse cx="144" cy="892.1484" fill="#FFFFFF" rx="3" ry="3" style="stroke:#000000;stroke-width:1.0;"/><text fill="#000000" font-family="Verdana" font-size="14" lengthAdjust="spacing" textLength="129" x="151" y="899.2236">description: string</text><line style="stroke:#000000;stroke-width:1.0;" x1="134" x2="316" y1="906.1631" y2="906.1631"/><text fill="#000000" font-family="Verdana" font-size="14" lengthAdjust="spacing" textLength="138" x="151" y="924.2383">nodes: Document[]</text><polygon fill="#FFFFFF" points="144,929.1777,148,933.1777,144,937.1777,140,933.1777" style="stroke:#000000;stroke-width:1.0;"/><text fill="#000000" font-family="Verdana" font-size="14" lengthAdjust="spacing" textLength="160" x="151" y="941.2529">nodes.id: number (FK)</text><!--MD5=[3fee75583bb7a64f68d843a3c9534ab3]
class Node--><rect codeLine="48" fill="#FFFFFF" height="112.0586" id="Node" style="stroke:#000000;stroke-width:1.5;" width="136" x="157" y="1008.1191"/><ellipse cx="203.25" cy="1022.1191" fill="#FFFFFF" rx="9" ry="9" style="stroke:#000000;stroke-width:1.0;"/><path d="M198.9844,1028.1191 L198.9844,1015.9473 L208.0156,1015.9473 L208.0156,1018.0098 L201.4375,1018.0098 L201.4375,1020.7129 L207.5469,1020.7129 L207.5469,1022.7598 L201.4375,1022.7598 L201.4375,1026.0723 L208.25,1026.0723 L208.25,1028.1191 L198.9844,1028.1191 Z " fill="#000000"/><text fill="#000000" font-family="Verdana" font-size="14" lengthAdjust="spacing" textLength="36" x="220.75" y="1027.687">Node</text><line style="stroke:#000000;stroke-width:1.5;" x1="158" x2="292" y1="1036.1191" y2="1036.1191"/><ellipse cx="168" cy="1047.1191" fill="#FFFFFF" rx="3" ry="3" style="stroke:#000000;stroke-width:1.0;"/><text fill="#000000" font-family="Verdana" font-size="14" lengthAdjust="spacing" textLength="112" x="175" y="1054.1943">id: number (PK)</text><line style="stroke:#000000;stroke-width:1.0;" x1="158" x2="292" y1="1061.1338" y2="1061.1338"/><ellipse cx="168" cy="1072.1338" fill="#FFFFFF" rx="3" ry="3" style="stroke:#000000;stroke-width:1.0;"/><text fill="#000000" font-family="Verdana" font-size="14" lengthAdjust="spacing" textLength="78" x="175" y="1079.209">title: string</text><ellipse cx="168" cy="1089.1484" fill="#FFFFFF" rx="3" ry="3" style="stroke:#000000;stroke-width:1.0;"/><text fill="#000000" font-family="Verdana" font-size="14" lengthAdjust="spacing" textLength="83" x="175" y="1096.2236">type: string</text><ellipse cx="168" cy="1106.1631" fill="#FFFFFF" rx="3" ry="3" style="stroke:#000000;stroke-width:1.0;"/><text fill="#000000" font-family="Verdana" font-size="14" lengthAdjust="spacing" textLength="67" x="175" y="1113.2383">data: any</text><!--MD5=[e54af2a3dfd72988f8d17c8016ff295d]
class Box--><rect codeLine="56" fill="#FFFFFF" height="137.0732" id="Box" style="stroke:#000000;stroke-width:1.5;" width="179" x="242.5" y="597.1191"/><ellipse cx="314.25" cy="611.1191" fill="#FFFFFF" rx="9" ry="9" style="stroke:#000000;stroke-width:1.0;"/><path d="M309.9844,617.1191 L309.9844,604.9473 L319.0156,604.9473 L319.0156,607.0098 L312.4375,607.0098 L312.4375,609.7129 L318.5469,609.7129 L318.5469,611.7598 L312.4375,611.7598 L312.4375,615.0723 L319.25,615.0723 L319.25,617.1191 L309.9844,617.1191 Z " fill="#000000"/><text fill="#000000" font-family="Verdana" font-size="14" lengthAdjust="spacing" textLength="28" x="331.75" y="616.687">Box</text><line style="stroke:#000000;stroke-width:1.5;" x1="243.5" x2="420.5" y1="625.1191" y2="625.1191"/><ellipse cx="253.5" cy="636.1191" fill="#FFFFFF" rx="3" ry="3" style="stroke:#000000;stroke-width:1.0;"/><text fill="#000000" font-family="Verdana" font-size="14" lengthAdjust="spacing" textLength="112" x="260.5" y="643.1943">id: number (PK)</text><line style="stroke:#000000;stroke-width:1.0;" x1="243.5" x2="420.5" y1="650.1338" y2="650.1338"/><ellipse cx="253.5" cy="661.1338" fill="#FFFFFF" rx="3" ry="3" style="stroke:#000000;stroke-width:1.0;"/><text fill="#000000" font-family="Verdana" font-size="14" lengthAdjust="spacing" textLength="85" x="260.5" y="668.209">try: number</text><line style="stroke:#000000;stroke-width:1.0;" x1="243.5" x2="420.5" y1="675.1484" y2="675.1484"/><text fill="#000000" font-family="Verdana" font-size="14" lengthAdjust="spacing" textLength="133" x="260.5" y="693.2236">tasks: Document[]</text><polygon fill="#FFFFFF" points="253.5,698.1631,257.5,702.1631,253.5,706.1631,249.5,702.1631" style="stroke:#000000;stroke-width:1.0;"/><text fill="#000000" font-family="Verdana" font-size="14" lengthAdjust="spacing" textLength="155" x="260.5" y="710.2383">tasks.id: number (FK)</text><ellipse cx="253.5" cy="720.1777" fill="#FFFFFF" rx="3" ry="3" style="stroke:#000000;stroke-width:1.0;"/><text fill="#000000" font-family="Verdana" font-size="14" lengthAdjust="spacing" textLength="141" x="260.5" y="727.2529">tasks.layer: number</text><!--MD5=[3fd616f346a44cd59a91eb10b19e157c]
class User--><rect codeLine="76" fill="#FFFFFF" height="307.2197" id="User" style="stroke:#000000;stroke-width:1.5;" width="202" x="478" y="213.1191"/><ellipse cx="559.25" cy="227.1191" fill="#FFFFFF" rx="9" ry="9" style="stroke:#000000;stroke-width:1.0;"/><path d="M554.9844,233.1191 L554.9844,220.9473 L564.0156,220.9473 L564.0156,223.0098 L557.4375,223.0098 L557.4375,225.7129 L563.5469,225.7129 L563.5469,227.7598 L557.4375,227.7598 L557.4375,231.0723 L564.25,231.0723 L564.25,233.1191 L554.9844,233.1191 Z " fill="#000000"/><text fill="#000000" font-family="Verdana" font-size="14" lengthAdjust="spacing" textLength="32" x="576.75" y="232.687">User</text><line style="stroke:#000000;stroke-width:1.5;" x1="479" x2="679" y1="241.1191" y2="241.1191"/><ellipse cx="489" cy="252.1191" fill="#FFFFFF" rx="3" ry="3" style="stroke:#000000;stroke-width:1.0;"/><text fill="#000000" font-family="Verdana" font-size="14" lengthAdjust="spacing" textLength="112" x="496" y="259.1943">id: number (PK)</text><line style="stroke:#000000;stroke-width:1.0;" x1="479" x2="679" y1="266.1338" y2="266.1338"/><ellipse cx="489" cy="277.1338" fill="#FFFFFF" rx="3" ry="3" style="stroke:#000000;stroke-width:1.0;"/><text fill="#000000" font-family="Verdana" font-size="14" lengthAdjust="spacing" textLength="87" x="496" y="284.209">email: string</text><ellipse cx="489" cy="294.1484" fill="#FFFFFF" rx="3" ry="3" style="stroke:#000000;stroke-width:1.0;"/><text fill="#000000" font-family="Verdana" font-size="14" lengthAdjust="spacing" textLength="90" x="496" y="301.2236">name: string</text><ellipse cx="489" cy="311.1631" fill="#FFFFFF" rx="3" ry="3" style="stroke:#000000;stroke-width:1.0;"/><text fill="#000000" font-family="Verdana" font-size="14" lengthAdjust="spacing" textLength="90" x="496" y="318.2383">sex: number</text><ellipse cx="489" cy="328.1777" fill="#FFFFFF" rx="3" ry="3" style="stroke:#000000;stroke-width:1.0;"/><text fill="#000000" font-family="Verdana" font-size="14" lengthAdjust="spacing" textLength="110" x="496" y="335.2529">birthday: string</text><ellipse cx="489" cy="345.1924" fill="#FFFFFF" rx="3" ry="3" style="stroke:#000000;stroke-width:1.0;"/><text fill="#000000" font-family="Verdana" font-size="14" lengthAdjust="spacing" textLength="120" x="496" y="352.2676">password: string</text><ellipse cx="489" cy="362.207" fill="#FFFFFF" rx="3" ry="3" style="stroke:#000000;stroke-width:1.0;"/><text fill="#000000" font-family="Verdana" font-size="14" lengthAdjust="spacing" textLength="96" x="496" y="369.2822">tries: number</text><line style="stroke:#000000;stroke-width:1.0;" x1="479" x2="679" y1="376.2217" y2="376.2217"/><text fill="#000000" font-family="Verdana" font-size="14" lengthAdjust="spacing" textLength="113" x="496" y="394.2969">level: Document</text><polygon fill="#FFFFFF" points="489,399.2363,493,403.2363,489,407.2363,485,403.2363" style="stroke:#000000;stroke-width:1.0;"/><text fill="#000000" font-family="Verdana" font-size="14" lengthAdjust="spacing" textLength="147" x="496" y="411.3115">level.id: number (FK)</text><text fill="#000000" font-family="Verdana" font-size="14" lengthAdjust="spacing" textLength="144" x="496" y="428.3262">category: Document</text><polygon fill="#FFFFFF" points="489,433.2656,493,437.2656,489,441.2656,485,437.2656" style="stroke:#000000;stroke-width:1.0;"/><text fill="#000000" font-family="Verdana" font-size="14" lengthAdjust="spacing" textLength="178" x="496" y="445.3408">category.id: number (FK)</text><text fill="#000000" font-family="Verdana" font-size="14" lengthAdjust="spacing" textLength="110" x="496" y="462.3555">box: Document</text><polygon fill="#FFFFFF" points="489,467.2949,493,471.2949,489,475.2949,485,471.2949" style="stroke:#000000;stroke-width:1.0;"/><text fill="#000000" font-family="Verdana" font-size="14" lengthAdjust="spacing" textLength="144" x="496" y="479.3701">box.id: number (FK)</text><text fill="#000000" font-family="Verdana" font-size="14" lengthAdjust="spacing" textLength="144" x="496" y="496.3848">history: Document[]</text><polygon fill="#FFFFFF" points="489,501.3242,493,505.3242,489,509.3242,485,505.3242" style="stroke:#000000;stroke-width:1.0;"/><text fill="#000000" font-family="Verdana" font-size="14" lengthAdjust="spacing" textLength="101" x="496" y="513.3994">history.id (FK)</text><path d="M454,91.6191 L454,117.4185 L680,117.4185 L680,101.6191 L670,91.6191 L454,91.6191 " fill="#FFFFFF" style="stroke:#000000;stroke-width:1.0;"/><path d="M670,91.6191 L670,101.6191 L680,101.6191 L670,91.6191 " fill="#FFFFFF" style="stroke:#000000;stroke-width:1.0;"/><text fill="#000000" font-family="Verdana" font-size="13" font-style="italic" lengthAdjust="spacing" textLength="205" x="460" y="109.689">Considering a NoSQL db engine</text><!--MD5=[e0b7c7d0d3de33020e949c9992e80734]
link Game to Level--><path codeLine="66" d="M225,160.3691 C225,160.3691 225,289.9891 225,289.9891 " fill="none" id="Game-Level" style="stroke:#000000;stroke-width:1.0;"/><line style="stroke:#000000;stroke-width:1.0;" x1="225" x2="231" y1="289.9891" y2="297.9891"/><line style="stroke:#000000;stroke-width:1.0;" x1="225" x2="219" y1="289.9891" y2="297.9891"/><line style="stroke:#000000;stroke-width:1.0;" x1="225" x2="225" y1="289.9891" y2="297.9891"/><ellipse cx="225" cy="283.9891" fill="none" rx="4" ry="4" style="stroke:#000000;stroke-width:1.0;"/><line style="stroke:#000000;stroke-width:1.0;" x1="221" x2="229" y1="156.3691" y2="156.3691"/><line style="stroke:#000000;stroke-width:1.0;" x1="221" x2="229" y1="159.3691" y2="159.3691"/><line style="stroke:#000000;stroke-width:1.0;" x1="225" x2="225" y1="160.3691" y2="152.3691"/><!--MD5=[ddcc3d7ea620b7be58117306ecd5be67]
link Level to Category--><path codeLine="67" d="M148.17,443.2191 C148.17,443.2191 148.17,571.9491 148.17,571.9491 " fill="none" id="Level-Category" style="stroke:#000000;stroke-width:1.0;"/><line style="stroke:#000000;stroke-width:1.0;" x1="148.17" x2="154.17" y1="571.9491" y2="579.9491"/><line style="stroke:#000000;stroke-width:1.0;" x1="148.17" x2="142.17" y1="571.9491" y2="579.9491"/><line style="stroke:#000000;stroke-width:1.0;" x1="148.17" x2="148.17" y1="571.9491" y2="579.9491"/><ellipse cx="148.17" cy="565.9491" fill="none" rx="4" ry="4" style="stroke:#000000;stroke-width:1.0;"/><line style="stroke:#000000;stroke-width:1.0;" x1="144.17" x2="152.17" y1="439.2191" y2="439.2191"/><line style="stroke:#000000;stroke-width:1.0;" x1="144.17" x2="152.17" y1="442.2191" y2="442.2191"/><line style="stroke:#000000;stroke-width:1.0;" x1="148.17" x2="148.17" y1="443.2191" y2="435.2191"/><!--MD5=[04a2db5f0875e86738de0296bf8c209b]
link Category to Task--><path codeLine="68" d="M170.25,759.1191 C170.25,759.1191 170.25,803.0391 170.25,803.0391 " fill="none" id="Category-Task" style="stroke:#000000;stroke-width:1.0;"/><line style="stroke:#000000;stroke-width:1.0;" x1="170.25" x2="176.25" y1="803.0391" y2="811.0391"/><line style="stroke:#000000;stroke-width:1.0;" x1="170.25" x2="164.25" y1="803.0391" y2="811.0391"/><line style="stroke:#000000;stroke-width:1.0;" x1="170.25" x2="170.25" y1="803.0391" y2="811.0391"/><ellipse cx="170.25" cy="797.0391" fill="none" rx="4" ry="4" style="stroke:#000000;stroke-width:1.0;"/><line style="stroke:#000000;stroke-width:1.0;" x1="166.25" x2="174.25" y1="755.1191" y2="755.1191"/><line style="stroke:#000000;stroke-width:1.0;" x1="166.25" x2="174.25" y1="758.1191" y2="758.1191"/><line style="stroke:#000000;stroke-width:1.0;" x1="170.25" x2="170.25" y1="759.1191" y2="751.1191"/><!--MD5=[b851b96aceb3cf6ceaa84716ec73bc47]
link Task to Node--><path codeLine="69" d="M225,956.3191 C225,956.3191 225,1000.0091 225,1000.0091 " fill="none" id="Task-Node" style="stroke:#000000;stroke-width:1.0;"/><line style="stroke:#000000;stroke-width:1.0;" x1="225" x2="231" y1="1000.0091" y2="1008.0091"/><line style="stroke:#000000;stroke-width:1.0;" x1="225" x2="219" y1="1000.0091" y2="1008.0091"/><line style="stroke:#000000;stroke-width:1.0;" x1="225" x2="225" y1="1000.0091" y2="1008.0091"/><ellipse cx="225" cy="994.0091" fill="none" rx="4" ry="4" style="stroke:#000000;stroke-width:1.0;"/><line style="stroke:#000000;stroke-width:1.0;" x1="221" x2="229" y1="952.3191" y2="952.3191"/><line style="stroke:#000000;stroke-width:1.0;" x1="221" x2="229" y1="955.3191" y2="955.3191"/><line style="stroke:#000000;stroke-width:1.0;" x1="225" x2="225" y1="956.3191" y2="948.3191"/><!--MD5=[c50fbf969dc83bb8230604bf586cccbb]
link Box to Category--><path codeLine="70" d="M234.48,666.1191 C234.48,666.1191 215.5,666.1191 215.5,666.1191 " fill="none" id="Box-Category" style="stroke:#000000;stroke-width:1.0;"/><line style="stroke:#000000;stroke-width:1.0;" x1="211.5" x2="211.5" y1="670.1191" y2="662.1191"/><line style="stroke:#000000;stroke-width:1.0;" x1="214.5" x2="214.5" y1="670.1191" y2="662.1191"/><line style="stroke:#000000;stroke-width:1.0;" x1="215.5" x2="207.5" y1="666.1191" y2="666.1191"/><line style="stroke:#000000;stroke-width:1.0;" x1="234.48" x2="242.48" y1="666.1191" y2="660.1191"/><line style="stroke:#000000;stroke-width:1.0;" x1="234.48" x2="242.48" y1="666.1191" y2="672.1191"/><line style="stroke:#000000;stroke-width:1.0;" x1="234.48" x2="242.48" y1="666.1191" y2="666.1191"/><ellipse cx="228.48" cy="666.1191" fill="none" rx="4" ry="4" style="stroke:#000000;stroke-width:1.0;"/><!--MD5=[ed83b062af227cf509484a686c404a37]
link Box to Task--><path codeLine="71" d="M279.75,742.2091 C279.75,742.2091 279.75,803.0491 279.75,803.0491 " fill="none" id="Box-Task" style="stroke:#000000;stroke-width:1.0;"/><line style="stroke:#000000;stroke-width:1.0;" x1="279.75" x2="285.75" y1="803.0491" y2="811.0491"/><line style="stroke:#000000;stroke-width:1.0;" x1="279.75" x2="273.75" y1="803.0491" y2="811.0491"/><line style="stroke:#000000;stroke-width:1.0;" x1="279.75" x2="279.75" y1="803.0491" y2="811.0491"/><ellipse cx="279.75" cy="797.0491" fill="none" rx="4" ry="4" style="stroke:#000000;stroke-width:1.0;"/><line style="stroke:#000000;stroke-width:1.0;" x1="275.75" x2="283.75" y1="738.2091" y2="738.2091"/><line style="stroke:#000000;stroke-width:1.0;" x1="275.75" x2="283.75" y1="741.2091" y2="741.2091"/><line style="stroke:#000000;stroke-width:1.0;" x1="279.75" x2="279.75" y1="742.2091" y2="734.2091"/><!--MD5=[594bfbd9f471216885001b4108416bf1]
link User to Level--><path codeLine="96" d="M469.56,367.1191 C469.56,367.1191 339.7,367.1191 339.7,367.1191 " fill="none" id="User-Level" style="stroke:#000000;stroke-width:1.0;"/><line style="stroke:#000000;stroke-width:1.0;" x1="342.7" x2="331.7" y1="367.1191" y2="367.1191"/><ellipse cx="342.7" cy="367.1191" fill="none" rx="4" ry="4" style="stroke:#000000;stroke-width:1.0;"/><line style="stroke:#000000;stroke-width:1.0;" x1="335.7" x2="335.7" y1="371.1191" y2="363.1191"/><line style="stroke:#000000;stroke-width:1.0;" x1="469.56" x2="477.56" y1="367.1191" y2="361.1191"/><line style="stroke:#000000;stroke-width:1.0;" x1="469.56" x2="477.56" y1="367.1191" y2="373.1191"/><line style="stroke:#000000;stroke-width:1.0;" x1="469.56" x2="477.56" y1="367.1191" y2="367.1191"/><ellipse cx="463.56" cy="367.1191" fill="none" rx="4" ry="4" style="stroke:#000000;stroke-width:1.0;"/><!--MD5=[0004528d1fd0f0ebdf90658bcc01e426]
link User to Category--><path codeLine="97" d="M469.77,457.1191 C469.77,457.1191 177.83,457.1191 177.83,457.1191 C177.83,457.1191 177.83,571.9091 177.83,571.9091 " fill="none" id="User-Category" style="stroke:#000000;stroke-width:1.0;"/><line style="stroke:#000000;stroke-width:1.0;" x1="177.83" x2="177.83" y1="568.9091" y2="579.9091"/><ellipse cx="177.83" cy="568.9091" fill="none" rx="4" ry="4" style="stroke:#000000;stroke-width:1.0;"/><line style="stroke:#000000;stroke-width:1.0;" x1="181.83" x2="173.83" y1="575.9091" y2="575.9091"/><line style="stroke:#000000;stroke-width:1.0;" x1="469.77" x2="477.77" y1="457.1191" y2="451.1191"/><line style="stroke:#000000;stroke-width:1.0;" x1="469.77" x2="477.77" y1="457.1191" y2="463.1191"/><line style="stroke:#000000;stroke-width:1.0;" x1="469.77" x2="477.77" y1="457.1191" y2="457.1191"/><ellipse cx="463.77" cy="457.1191" fill="none" rx="4" ry="4" style="stroke:#000000;stroke-width:1.0;"/><!--MD5=[c5ca0193d6717508f4f29c8bf8d8a670]
link User to Box--><path codeLine="98" d="M469.84,499.1191 C469.84,499.1191 391.5,499.1191 391.5,499.1191 C391.5,499.1191 391.5,588.9391 391.5,588.9391 " fill="none" id="User-Box" style="stroke:#000000;stroke-width:1.0;"/><line style="stroke:#000000;stroke-width:1.0;" x1="391.5" x2="391.5" y1="585.9391" y2="596.9391"/><ellipse cx="391.5" cy="585.9391" fill="none" rx="4" ry="4" style="stroke:#000000;stroke-width:1.0;"/><line style="stroke:#000000;stroke-width:1.0;" x1="395.5" x2="387.5" y1="592.9391" y2="592.9391"/><line style="stroke:#000000;stroke-width:1.0;" x1="473.84" x2="473.84" y1="495.1191" y2="503.1191"/><line style="stroke:#000000;stroke-width:1.0;" x1="470.84" x2="470.84" y1="495.1191" y2="503.1191"/><line style="stroke:#000000;stroke-width:1.0;" x1="469.84" x2="477.84" y1="499.1191" y2="499.1191"/><!--MD5=[c5ca0193d6717508f4f29c8bf8d8a670]
link User to Box--><path codeLine="99" d="M469.89,478.1191 C469.89,478.1191 361.5,478.1191 361.5,478.1191 C361.5,478.1191 361.5,588.8691 361.5,588.8691 " fill="none" id="User-Box-1" style="stroke:#000000;stroke-width:1.0;"/><line style="stroke:#000000;stroke-width:1.0;" x1="361.5" x2="367.5" y1="588.8691" y2="596.8691"/><line style="stroke:#000000;stroke-width:1.0;" x1="361.5" x2="355.5" y1="588.8691" y2="596.8691"/><line style="stroke:#000000;stroke-width:1.0;" x1="361.5" x2="361.5" y1="588.8691" y2="596.8691"/><ellipse cx="361.5" cy="582.8691" fill="none" rx="4" ry="4" style="stroke:#000000;stroke-width:1.0;"/><line style="stroke:#000000;stroke-width:1.0;" x1="473.89" x2="473.89" y1="474.1191" y2="482.1191"/><line style="stroke:#000000;stroke-width:1.0;" x1="470.89" x2="470.89" y1="474.1191" y2="482.1191"/><line style="stroke:#000000;stroke-width:1.0;" x1="469.89" x2="477.89" y1="478.1191" y2="478.1191"/><!--MD5=[6776b5298b3ae278d5b9833c64689351]
@startuml
skinparam linetype ortho
!theme plain

note as EngineNote
    <i>Considering a NoSQL db engine</i>
end note

package Game <<Rectangle>> {
  entity Game {
    + id: number (PK)
    - -
    levels: Document[]
    # levels.id: number (FK)
  }

  entity Level {
    + id: number (PK)
    - -
    * name: string
    * layer: number
    - -
    categories: Document[]
    # categories.id: number (FK)
  }

  entity Category {
    + id: number (PK)
    - -
    * iconUrl: string
    * name: string
    * description: string
    * layer: number
    - -
    tasks: Document[]
    # tasks.id: number (FK)
  }

  entity Task {
    + id: number (PK)
    - -
    * name: string
    * description: string
    - -
    nodes: Document[]
    # nodes.id: number (FK)
  }

  entity Node {
    + id: number (PK)
    - -
    * title: string
    * type: string
    * data: any
  }

  entity Box {
    + id: number (PK)
    - -
    * try: number
    - -
    tasks: Document[]
    # tasks.id: number (FK)
    * tasks.layer: number
  }

  Game ||-d-o{ Level
  Level ||-d-o{ Category
  Category ||-d-o{ Task
  Task ||-d-o{ Node
  Box }o-r-|| Category
  Box ||-d-o{ Task
}

package User <<Rectangle>> {

  entity User {
    + id: number (PK)
    - -
    * email: string
    * name: string
    * sex: number
    * birthday: string
    * password: string
    * tries: number
    - -
    level: Document
    # level.id: number (FK)
    category: Document
    # category.id: number (FK)
    box: Document
    # box.id: number (FK)
    history: Document[]
    # history.id (FK)
  }

  User }o-o| Level
  User }o-o| Category
  User ||-o| Box
  User ||-o{ Box

}
@enduml

@startuml
skinparam linetype ortho







<style>
  root {
    BackgroundColor white
    FontColor black
    FontName Verdana
    HyperLinkColor blue
    LineColor black
    LineThickness 1
    Margin 5
  }
  caption {
    LineThickness 0
  }
  footer {
    LineThickness 0
  }
  header {
    LineThickness 0
  }
  node {
    MaximumWidth 300
  }
  title {
    FontSize 22
    LineThickness 0
  }
</style>

skinparam ArrowLollipopColor black
skinparam BackgroundColor white
skinparam DefaultFontName Verdana
skinparam DefaultMonospacedFontName Courier
skinparam LifelineStrategy nosolid
skinparam ParticipantPadding 10
skinparam SequenceLifeLineBorderColor black
skinparam Shadowing false
skinparam UseBetaStyle true

skinparam Activity {
  BackgroundColor white
  BarColor black
  BorderColor black
  FontColor black
  FontName Verdana
}
skinparam Boundary {
  FontColor black
}
skinparam Box {
  Padding 5
}
skinparam CircledCharacter {
  FontColor black
  FontName Courier
  Radius 9
}
skinparam Class {
  BackgroundColor white
  BorderColor black
  FontColor black
  FontName Verdana
}
skinparam ClassAttribute {
  FontColor black
  FontName Verdana
}
skinparam ClassStereotype {
  FontColor black
  FontName Verdana
}
skinparam Footer {
  FontColor black
  FontName Verdana
}
skinparam Header {
  FontColor black
  FontName Verdana
}
skinparam Hyperlink {
  Color blue
}
skinparam IconPackage {
  Color black
  BackgroundColor white
}
skinparam IconPrivate {
  Color black
  BackgroundColor white
}
skinparam IconProtected {
  Color black
  BackgroundColor white
}
skinparam IconPublic {
  Color black
  BackgroundColor white
}
skinparam Note {
  FontColor black
  FontName Verdana
}
skinparam Object {
  BorderColor black
}
skinparam Package {
  BorderColor black
  FontColor black
  FontName Verdana
}
skinparam State {
  BackgroundColor white
  BorderColor black
}
skinparam StereotypeA {
  BackgroundColor white
  BorderColor black
}
skinparam StereotypeC {
  BackgroundColor white
  BorderColor black
}
skinparam StereotypeE {
  BackgroundColor white
  BorderColor black
}
skinparam StereotypeI {
  BackgroundColor white
  BorderColor black
}
skinparam StereotypeN {
  BackgroundColor white
  BorderColor black
}
skinparam UseCaseStereoType {
  FontColor black
  FontName Verdana
}

note as EngineNote
    <i>Considering a NoSQL db engine</i>
end note

package Game <<Rectangle>> {
  entity Game {
    + id: number (PK)
    - -
    levels: Document[]
    # levels.id: number (FK)
  }

  entity Level {
    + id: number (PK)
    - -
    * name: string
    * layer: number
    - -
    categories: Document[]
    # categories.id: number (FK)
  }

  entity Category {
    + id: number (PK)
    - -
    * iconUrl: string
    * name: string
    * description: string
    * layer: number
    - -
    tasks: Document[]
    # tasks.id: number (FK)
  }

  entity Task {
    + id: number (PK)
    - -
    * name: string
    * description: string
    - -
    nodes: Document[]
    # nodes.id: number (FK)
  }

  entity Node {
    + id: number (PK)
    - -
    * title: string
    * type: string
    * data: any
  }

  entity Box {
    + id: number (PK)
    - -
    * try: number
    - -
    tasks: Document[]
    # tasks.id: number (FK)
    * tasks.layer: number
  }

  Game ||-d-o{ Level
  Level ||-d-o{ Category
  Category ||-d-o{ Task
  Task ||-d-o{ Node
  Box }o-r-|| Category
  Box ||-d-o{ Task
}

package User <<Rectangle>> {

  entity User {
    + id: number (PK)
    - -
    * email: string
    * name: string
    * sex: number
    * birthday: string
    * password: string
    * tries: number
    - -
    level: Document
    # level.id: number (FK)
    category: Document
    # category.id: number (FK)
    box: Document
    # box.id: number (FK)
    history: Document[]
    # history.id (FK)
  }

  User }o-o| Level
  User }o-o| Category
  User ||-o| Box
  User ||-o{ Box

}
@enduml

PlantUML version 1.2022.1(Tue Feb 01 15:19:58 BRT 2022)
(GPL source distribution)
Java Runtime: OpenJDK Runtime Environment
JVM: OpenJDK 64-Bit Server VM
Default Encoding: UTF-8
Language: en
Country: US
--></g></svg>