<?xml version="1.0" encoding="UTF-8" standalone="no"?><svg xmlns="http://www.w3.org/2000/svg" xmlns:xlink="http://www.w3.org/1999/xlink" contentScriptType="application/ecmascript" contentStyleType="text/css" height="1259px" preserveAspectRatio="none" style="width:1084px;height:1259px;background:#FFFFFF;" version="1.1" viewBox="0 0 1084 1259" width="1084px" zoomAndPan="magnify"><defs/><g><!--MD5=[2b611c2d60e481aa2035053367969193]
cluster Game--><rect fill="#FFFFFF" height="1152" style="stroke:#000000;stroke-width:1.0;" width="616" x="114.5" y="101"/><text fill="#000000" font-family="Verdana" font-size="22" font-weight="bold" lengthAdjust="spacing" textLength="71" x="387" y="123.4209">Game</text><!--MD5=[d0083cf0b2d9f17e335f85bf9624e57e]
cluster User--><rect fill="#FFFFFF" height="291" style="stroke:#000000;stroke-width:1.0;" width="316" x="762.5" y="52"/><text fill="#000000" font-family="Verdana" font-size="22" font-weight="bold" lengthAdjust="spacing" textLength="57" x="892" y="74.4209">User</text><!--MD5=[eedde156c9dded963040b22578af45fa]
class Level--><rect codeLine="6" fill="#FFFFFF" height="117.1875" id="Level" style="stroke:#000000;stroke-width:1.5;" width="275" x="294" y="153"/><ellipse cx="410.25" cy="167" fill="#FFFFFF" rx="9" ry="9" style="stroke:#000000;stroke-width:1.0;"/><path d="M414.3594,173 L406.6406,173 L406.6406,160.6094 L414.3594,160.6094 L414.3594,162.7656 L409.0938,162.7656 L409.0938,165.4375 L413.8594,165.4375 L413.8594,167.5938 L409.0938,167.5938 L409.0938,170.8438 L414.3594,170.8438 L414.3594,173 Z " fill="#000000"/><text fill="#000000" font-family="Verdana" font-size="14" lengthAdjust="spacing" textLength="35" x="427.75" y="171.8467">Level</text><line style="stroke:#000000;stroke-width:1.5;" x1="295" x2="568" y1="181" y2="181"/><ellipse cx="305" cy="192" fill="#FFFFFF" rx="3" ry="3" style="stroke:#000000;stroke-width:1.0;"/><text fill="#000000" font-family="Verdana" font-size="14" lengthAdjust="spacing" textLength="107" x="312" y="197.9951">id: number (PK)</text><line style="stroke:#000000;stroke-width:1.0;" x1="295" x2="568" y1="205.2969" y2="205.2969"/><ellipse cx="305" cy="216.2969" fill="#000000" rx="3" ry="3" style="stroke:#000000;stroke-width:1.0;"/><text fill="#000000" font-family="Verdana" font-size="14" lengthAdjust="spacing" textLength="87" x="312" y="222.292">name: string</text><ellipse cx="305" cy="232.5938" fill="#000000" rx="3" ry="3" style="stroke:#000000;stroke-width:1.0;"/><text fill="#000000" font-family="Verdana" font-size="14" lengthAdjust="spacing" textLength="95" x="312" y="238.5889">layer: number</text><line style="stroke:#000000;stroke-width:1.0;" x1="295" x2="568" y1="245.8906" y2="245.8906"/><polygon fill="none" points="305,251.8906,309,255.8906,305,259.8906,301,255.8906" style="stroke:#000000;stroke-width:1.0;"/><text fill="#000000" font-family="Verdana" font-size="14" lengthAdjust="spacing" textLength="251" x="312" y="262.8857">categories: Document&lt;Category&gt;[]</text><!--MD5=[a96594a83e2ecdc78cbf17c2ddf01934]
class Category--><rect codeLine="15" fill="#FFFFFF" height="133.4844" id="Category" style="stroke:#000000;stroke-width:1.5;" width="241" x="147" y="387"/><ellipse cx="232.75" cy="401" fill="#FFFFFF" rx="9" ry="9" style="stroke:#000000;stroke-width:1.0;"/><path d="M236.8594,407 L229.1406,407 L229.1406,394.6094 L236.8594,394.6094 L236.8594,396.7656 L231.5938,396.7656 L231.5938,399.4375 L236.3594,399.4375 L236.3594,401.5938 L231.5938,401.5938 L231.5938,404.8438 L236.8594,404.8438 L236.8594,407 Z " fill="#000000"/><text fill="#000000" font-family="Verdana" font-size="14" lengthAdjust="spacing" textLength="62" x="250.25" y="405.8467">Category</text><line style="stroke:#000000;stroke-width:1.5;" x1="148" x2="387" y1="415" y2="415"/><ellipse cx="158" cy="426" fill="#FFFFFF" rx="3" ry="3" style="stroke:#000000;stroke-width:1.0;"/><text fill="#000000" font-family="Verdana" font-size="14" lengthAdjust="spacing" textLength="107" x="165" y="431.9951">id: number (PK)</text><line style="stroke:#000000;stroke-width:1.0;" x1="148" x2="387" y1="439.2969" y2="439.2969"/><ellipse cx="158" cy="450.2969" fill="#000000" rx="3" ry="3" style="stroke:#000000;stroke-width:1.0;"/><text fill="#000000" font-family="Verdana" font-size="14" lengthAdjust="spacing" textLength="95" x="165" y="456.292">iconUrl: string</text><ellipse cx="158" cy="466.5938" fill="#000000" rx="3" ry="3" style="stroke:#000000;stroke-width:1.0;"/><text fill="#000000" font-family="Verdana" font-size="14" lengthAdjust="spacing" textLength="87" x="165" y="472.5889">name: string</text><ellipse cx="158" cy="482.8906" fill="#000000" rx="3" ry="3" style="stroke:#000000;stroke-width:1.0;"/><text fill="#000000" font-family="Verdana" font-size="14" lengthAdjust="spacing" textLength="125" x="165" y="488.8857">description: string</text><line style="stroke:#000000;stroke-width:1.0;" x1="148" x2="387" y1="496.1875" y2="496.1875"/><polygon fill="#FFFFFF" points="158,502.1875,162,506.1875,158,510.1875,154,506.1875" style="stroke:#000000;stroke-width:1.0;"/><text fill="#000000" font-family="Verdana" font-size="14" lengthAdjust="spacing" textLength="217" x="165" y="513.1826">tasks: Document&lt;Task&gt;[] (FK)</text><!--MD5=[b34797a66dc35cbf1d65f7e3ca75530e]
class Task--><rect codeLine="25" fill="#FFFFFF" height="133.4844" id="Task" style="stroke:#000000;stroke-width:1.5;" width="246" x="302.5" y="839"/><ellipse cx="405.25" cy="853" fill="#FFFFFF" rx="9" ry="9" style="stroke:#000000;stroke-width:1.0;"/><path d="M409.3594,859 L401.6406,859 L401.6406,846.6094 L409.3594,846.6094 L409.3594,848.7656 L404.0938,848.7656 L404.0938,851.4375 L408.8594,851.4375 L408.8594,853.5938 L404.0938,853.5938 L404.0938,856.8438 L409.3594,856.8438 L409.3594,859 Z " fill="#000000"/><text fill="#000000" font-family="Verdana" font-size="14" lengthAdjust="spacing" textLength="33" x="422.75" y="857.8467">Task</text><line style="stroke:#000000;stroke-width:1.5;" x1="303.5" x2="547.5" y1="867" y2="867"/><ellipse cx="313.5" cy="878" fill="#FFFFFF" rx="3" ry="3" style="stroke:#000000;stroke-width:1.0;"/><text fill="#000000" font-family="Verdana" font-size="14" lengthAdjust="spacing" textLength="107" x="320.5" y="883.9951">id: number (PK)</text><line style="stroke:#000000;stroke-width:1.0;" x1="303.5" x2="547.5" y1="891.2969" y2="891.2969"/><ellipse cx="313.5" cy="902.2969" fill="#000000" rx="3" ry="3" style="stroke:#000000;stroke-width:1.0;"/><text fill="#000000" font-family="Verdana" font-size="14" lengthAdjust="spacing" textLength="87" x="320.5" y="908.292">name: string</text><ellipse cx="313.5" cy="918.5938" fill="#000000" rx="3" ry="3" style="stroke:#000000;stroke-width:1.0;"/><text fill="#000000" font-family="Verdana" font-size="14" lengthAdjust="spacing" textLength="125" x="320.5" y="924.5889">description: string</text><ellipse cx="313.5" cy="934.8906" fill="#000000" rx="3" ry="3" style="stroke:#000000;stroke-width:1.0;"/><text fill="#000000" font-family="Verdana" font-size="14" lengthAdjust="spacing" textLength="171" x="320.5" y="940.8857">question_count: number</text><line style="stroke:#000000;stroke-width:1.0;" x1="303.5" x2="547.5" y1="948.1875" y2="948.1875"/><ellipse cx="313.5" cy="959.1875" fill="#000000" rx="3" ry="3" style="stroke:#000000;stroke-width:1.0;"/><text fill="#000000" font-family="Verdana" font-size="14" lengthAdjust="spacing" textLength="222" x="320.5" y="965.1826">nodes: Subdocument&lt;Node&gt;[]</text><!--MD5=[3fee75583bb7a64f68d843a3c9534ab3]
class Node--><rect codeLine="35" fill="#FFFFFF" height="60.2969" id="Node" style="stroke:#000000;stroke-width:1.5;" width="97" x="377" y="1032"/><ellipse cx="404.4" cy="1046" fill="#FFFFFF" rx="9" ry="9" style="stroke:#000000;stroke-width:1.0;"/><path d="M408.5094,1052 L400.7906,1052 L400.7906,1039.6094 L408.5094,1039.6094 L408.5094,1041.7656 L403.2438,1041.7656 L403.2438,1044.4375 L408.0094,1044.4375 L408.0094,1046.5938 L403.2438,1046.5938 L403.2438,1049.8438 L408.5094,1049.8438 L408.5094,1052 Z " fill="#000000"/><text fill="#000000" font-family="Verdana" font-size="14" lengthAdjust="spacing" textLength="37" x="419.6" y="1050.8467">Node</text><line style="stroke:#000000;stroke-width:1.5;" x1="378" x2="473" y1="1060" y2="1060"/><ellipse cx="388" cy="1071" fill="#000000" rx="3" ry="3" style="stroke:#000000;stroke-width:1.0;"/><text fill="#000000" font-family="Verdana" font-size="14" lengthAdjust="spacing" textLength="73" x="395" y="1076.9951">title: string</text><line style="stroke:#000000;stroke-width:1.5;" x1="378" x2="473" y1="1084.2969" y2="1084.2969"/><!--MD5=[126026721311a5adf097b64293610377]
class ImageNode--><rect codeLine="39" fill="#FFFFFF" height="76.5938" id="ImageNode" style="stroke:#000000;stroke-width:1.5;" width="132" x="209.5" y="1152"/><ellipse cx="233.75" cy="1166" fill="#FFFFFF" rx="9" ry="9" style="stroke:#000000;stroke-width:1.0;"/><path d="M237.8594,1172 L230.1406,1172 L230.1406,1159.6094 L237.8594,1159.6094 L237.8594,1161.7656 L232.5938,1161.7656 L232.5938,1164.4375 L237.3594,1164.4375 L237.3594,1166.5938 L232.5938,1166.5938 L232.5938,1169.8438 L237.8594,1169.8438 L237.8594,1172 Z " fill="#000000"/><text fill="#000000" font-family="Verdana" font-size="14" lengthAdjust="spacing" textLength="79" x="248.25" y="1170.8467">ImageNode</text><line style="stroke:#000000;stroke-width:1.5;" x1="210.5" x2="340.5" y1="1180" y2="1180"/><ellipse cx="220.5" cy="1191" fill="#000000" rx="3" ry="3" style="stroke:#000000;stroke-width:1.0;"/><text fill="#000000" font-family="Verdana" font-size="14" lengthAdjust="spacing" textLength="108" x="227.5" y="1196.9951">imageUrl: string</text><ellipse cx="220.5" cy="1207.2969" fill="#000000" rx="3" ry="3" style="stroke:#000000;stroke-width:1.0;"/><text fill="#000000" font-family="Verdana" font-size="14" lengthAdjust="spacing" textLength="107" x="227.5" y="1213.292">imageAlt: string</text><line style="stroke:#000000;stroke-width:1.5;" x1="210.5" x2="340.5" y1="1220.5938" y2="1220.5938"/><!--MD5=[cfb71f71d8b2ca9b80feccc3834cab4f]
class TextNode--><rect codeLine="44" fill="#FFFFFF" height="60.2969" id="TextNode" style="stroke:#000000;stroke-width:1.5;" width="98" x="376.5" y="1160.5"/><ellipse cx="390.85" cy="1174.5" fill="#FFFFFF" rx="9" ry="9" style="stroke:#000000;stroke-width:1.0;"/><path d="M394.9594,1180.5 L387.2406,1180.5 L387.2406,1168.1094 L394.9594,1168.1094 L394.9594,1170.2656 L389.6938,1170.2656 L389.6938,1172.9375 L394.4594,1172.9375 L394.4594,1175.0938 L389.6938,1175.0938 L389.6938,1178.3438 L394.9594,1178.3438 L394.9594,1180.5 Z " fill="#000000"/><text fill="#000000" font-family="Verdana" font-size="14" lengthAdjust="spacing" textLength="67" x="403.15" y="1179.3467">TextNode</text><line style="stroke:#000000;stroke-width:1.5;" x1="377.5" x2="473.5" y1="1188.5" y2="1188.5"/><ellipse cx="387.5" cy="1199.5" fill="#000000" rx="3" ry="3" style="stroke:#000000;stroke-width:1.0;"/><text fill="#000000" font-family="Verdana" font-size="14" lengthAdjust="spacing" textLength="74" x="394.5" y="1205.4951">text: string</text><line style="stroke:#000000;stroke-width:1.5;" x1="377.5" x2="473.5" y1="1212.7969" y2="1212.7969"/><!--MD5=[986866776b317485e88fe8c1dea11d27]
class AnswerNode--><rect codeLine="48" fill="#FFFFFF" height="60.2969" id="AnswerNode" style="stroke:#000000;stroke-width:1.5;" width="133" x="510" y="1160.5"/><ellipse cx="530.65" cy="1174.5" fill="#FFFFFF" rx="9" ry="9" style="stroke:#000000;stroke-width:1.0;"/><path d="M534.7594,1180.5 L527.0406,1180.5 L527.0406,1168.1094 L534.7594,1168.1094 L534.7594,1170.2656 L529.4938,1170.2656 L529.4938,1172.9375 L534.2594,1172.9375 L534.2594,1175.0938 L529.4938,1175.0938 L529.4938,1178.3438 L534.7594,1178.3438 L534.7594,1180.5 Z " fill="#000000"/><text fill="#000000" font-family="Verdana" font-size="14" lengthAdjust="spacing" textLength="88" x="544.35" y="1179.3467">AnswerNode</text><line style="stroke:#000000;stroke-width:1.5;" x1="511" x2="642" y1="1188.5" y2="1188.5"/><ellipse cx="521" cy="1199.5" fill="#000000" rx="3" ry="3" style="stroke:#000000;stroke-width:1.0;"/><text fill="#000000" font-family="Verdana" font-size="14" lengthAdjust="spacing" textLength="109" x="528" y="1205.4951">question: string</text><line style="stroke:#000000;stroke-width:1.5;" x1="511" x2="642" y1="1212.7969" y2="1212.7969"/><!--MD5=[e54af2a3dfd72988f8d17c8016ff295d]
class Box--><rect codeLine="52" fill="#FFFFFF" height="117.1875" id="Box" style="stroke:#000000;stroke-width:1.5;" width="283" x="423" y="395"/><ellipse cx="547.75" cy="409" fill="#FFFFFF" rx="9" ry="9" style="stroke:#000000;stroke-width:1.0;"/><path d="M551.8594,415 L544.1406,415 L544.1406,402.6094 L551.8594,402.6094 L551.8594,404.7656 L546.5938,404.7656 L546.5938,407.4375 L551.3594,407.4375 L551.3594,409.5938 L546.5938,409.5938 L546.5938,412.8438 L551.8594,412.8438 L551.8594,415 Z " fill="#000000"/><text fill="#000000" font-family="Verdana" font-size="14" lengthAdjust="spacing" textLength="26" x="565.25" y="413.8467">Box</text><line style="stroke:#000000;stroke-width:1.5;" x1="424" x2="705" y1="423" y2="423"/><ellipse cx="434" cy="434" fill="#FFFFFF" rx="3" ry="3" style="stroke:#000000;stroke-width:1.0;"/><text fill="#000000" font-family="Verdana" font-size="14" lengthAdjust="spacing" textLength="107" x="441" y="439.9951">id: number (PK)</text><line style="stroke:#000000;stroke-width:1.0;" x1="424" x2="705" y1="447.2969" y2="447.2969"/><ellipse cx="434" cy="458.2969" fill="#000000" rx="3" ry="3" style="stroke:#000000;stroke-width:1.0;"/><text fill="#000000" font-family="Verdana" font-size="14" lengthAdjust="spacing" textLength="80" x="441" y="464.292">try: number</text><line style="stroke:#000000;stroke-width:1.0;" x1="424" x2="705" y1="471.5938" y2="471.5938"/><polygon fill="#FFFFFF" points="434,477.5938,438,481.5938,434,485.5938,430,481.5938" style="stroke:#000000;stroke-width:1.0;"/><text fill="#000000" font-family="Verdana" font-size="14" lengthAdjust="spacing" textLength="259" x="441" y="488.5889">category: Document&lt;Category&gt; (FK)</text><ellipse cx="434" cy="498.8906" fill="#000000" rx="3" ry="3" style="stroke:#000000;stroke-width:1.0;"/><text fill="#000000" font-family="Verdana" font-size="14" lengthAdjust="spacing" textLength="237" x="441" y="504.8857">tasks: Subdocument&lt;BoxTask&gt;[]</text><!--MD5=[84dc23aa5e068f23995b53a93b250770]
class BoxTask--><rect codeLine="61" fill="#FFFFFF" height="76.5938" id="BoxTask" style="stroke:#000000;stroke-width:1.5;" width="223" x="397" y="641"/><ellipse cx="475.25" cy="655" fill="#FFFFFF" rx="9" ry="9" style="stroke:#000000;stroke-width:1.0;"/><path d="M479.3594,661 L471.6406,661 L471.6406,648.6094 L479.3594,648.6094 L479.3594,650.7656 L474.0938,650.7656 L474.0938,653.4375 L478.8594,653.4375 L478.8594,655.5938 L474.0938,655.5938 L474.0938,658.8438 L479.3594,658.8438 L479.3594,661 Z " fill="#000000"/><text fill="#000000" font-family="Verdana" font-size="14" lengthAdjust="spacing" textLength="59" x="492.75" y="659.8467">BoxTask</text><line style="stroke:#000000;stroke-width:1.5;" x1="398" x2="619" y1="669" y2="669"/><ellipse cx="408" cy="680" fill="#000000" rx="3" ry="3" style="stroke:#000000;stroke-width:1.0;"/><text fill="#000000" font-family="Verdana" font-size="14" lengthAdjust="spacing" textLength="83" x="415" y="685.9951">task.answer</text><line style="stroke:#000000;stroke-width:1.5;" x1="398" x2="619" y1="693.2969" y2="693.2969"/><polygon fill="#FFFFFF" points="408,699.2969,412,703.2969,408,707.2969,404,703.2969" style="stroke:#000000;stroke-width:1.0;"/><text fill="#000000" font-family="Verdana" font-size="14" lengthAdjust="spacing" textLength="199" x="415" y="710.292">task: Document&lt;Task&gt; (FK)</text><!--MD5=[3fd616f346a44cd59a91eb10b19e157c]
class User--><rect codeLine="80" fill="#FFFFFF" height="231.2656" id="User" style="stroke:#000000;stroke-width:1.5;" width="283" x="779" y="96"/><ellipse cx="900.75" cy="110" fill="#FFFFFF" rx="9" ry="9" style="stroke:#000000;stroke-width:1.0;"/><path d="M904.8594,116 L897.1406,116 L897.1406,103.6094 L904.8594,103.6094 L904.8594,105.7656 L899.5938,105.7656 L899.5938,108.4375 L904.3594,108.4375 L904.3594,110.5938 L899.5938,110.5938 L899.5938,113.8438 L904.8594,113.8438 L904.8594,116 Z " fill="#000000"/><text fill="#000000" font-family="Verdana" font-size="14" lengthAdjust="spacing" textLength="32" x="918.25" y="114.8467">User</text><line style="stroke:#000000;stroke-width:1.5;" x1="780" x2="1061" y1="124" y2="124"/><ellipse cx="790" cy="135" fill="#FFFFFF" rx="3" ry="3" style="stroke:#000000;stroke-width:1.0;"/><text fill="#000000" font-family="Verdana" font-size="14" lengthAdjust="spacing" textLength="107" x="797" y="140.9951">id: number (PK)</text><line style="stroke:#000000;stroke-width:1.0;" x1="780" x2="1061" y1="148.2969" y2="148.2969"/><ellipse cx="790" cy="159.2969" fill="#000000" rx="3" ry="3" style="stroke:#000000;stroke-width:1.0;"/><text fill="#000000" font-family="Verdana" font-size="14" lengthAdjust="spacing" textLength="84" x="797" y="165.292">email: string</text><ellipse cx="790" cy="175.5938" fill="#000000" rx="3" ry="3" style="stroke:#000000;stroke-width:1.0;"/><text fill="#000000" font-family="Verdana" font-size="14" lengthAdjust="spacing" textLength="87" x="797" y="181.5889">name: string</text><ellipse cx="790" cy="191.8906" fill="#000000" rx="3" ry="3" style="stroke:#000000;stroke-width:1.0;"/><text fill="#000000" font-family="Verdana" font-size="14" lengthAdjust="spacing" textLength="87" x="797" y="197.8857">sex: number</text><ellipse cx="790" cy="208.1875" fill="#000000" rx="3" ry="3" style="stroke:#000000;stroke-width:1.0;"/><text fill="#000000" font-family="Verdana" font-size="14" lengthAdjust="spacing" textLength="103" x="797" y="214.1826">birthday: string</text><ellipse cx="790" cy="224.4844" fill="#000000" rx="3" ry="3" style="stroke:#000000;stroke-width:1.0;"/><text fill="#000000" font-family="Verdana" font-size="14" lengthAdjust="spacing" textLength="115" x="797" y="230.4795">password: string</text><ellipse cx="790" cy="240.7813" fill="#000000" rx="3" ry="3" style="stroke:#000000;stroke-width:1.0;"/><text fill="#000000" font-family="Verdana" font-size="14" lengthAdjust="spacing" textLength="93" x="797" y="246.7764">tries: number</text><line style="stroke:#000000;stroke-width:1.0;" x1="780" x2="1061" y1="254.0781" y2="254.0781"/><polygon fill="#FFFFFF" points="790,260.0781,794,264.0781,790,268.0781,786,264.0781" style="stroke:#000000;stroke-width:1.0;"/><text fill="#000000" font-family="Verdana" font-size="14" lengthAdjust="spacing" textLength="203" x="797" y="271.0732">level: Document&lt;Level&gt; (FK)</text><polygon fill="#FFFFFF" points="790,276.375,794,280.375,790,284.375,786,280.375" style="stroke:#000000;stroke-width:1.0;"/><text fill="#000000" font-family="Verdana" font-size="14" lengthAdjust="spacing" textLength="259" x="797" y="287.3701">category: Document&lt;Category&gt; (FK)</text><polygon fill="#FFFFFF" points="790,292.6719,794,296.6719,790,300.6719,786,296.6719" style="stroke:#000000;stroke-width:1.0;"/><text fill="#000000" font-family="Verdana" font-size="14" lengthAdjust="spacing" textLength="188" x="797" y="303.667">box: Document&lt;Box&gt; (FK)</text><polygon fill="#FFFFFF" points="790,308.9688,794,312.9688,790,316.9688,786,312.9688" style="stroke:#000000;stroke-width:1.0;"/><text fill="#000000" font-family="Verdana" font-size="14" lengthAdjust="spacing" textLength="219" x="797" y="319.9639">history: Document&lt;Box&gt;[] (FK)</text><path d="M11,11 L11,36.1328 L234,36.1328 L234,21 L224,11 L11,11 " fill="#FFFFFF" style="stroke:#000000;stroke-width:1.0;"/><path d="M224,11 L224,21 L234,21 L224,11 " fill="#FFFFFF" style="stroke:#000000;stroke-width:1.0;"/><text fill="#000000" font-family="Verdana" font-size="13" font-style="italic" lengthAdjust="spacing" textLength="202" x="17" y="28.0669">Considering a NoSQL db engine</text><!--MD5=[d87117bec218cdcfb672f00fdaa815f4]
reverse link Node to ImageNode--><path d="M356.78,1062 C356.78,1062 322,1062 322,1062 C322,1062 322,1114.1 322,1151.95 " fill="none" id="Node-backto-ImageNode" style="stroke:#000000;stroke-width:1.0;"/><polygon fill="none" points="356.78,1055,376.78,1062,356.78,1069,356.78,1055" style="stroke:#000000;stroke-width:1.0;"/><!--MD5=[914082daf4d76efa00f13e2899521b50]
reverse link Node to TextNode--><path d="M425.5,1112.13 C425.5,1112.13 425.5,1160.12 425.5,1160.12 " fill="none" id="Node-backto-TextNode" style="stroke:#000000;stroke-width:1.0;"/><polygon fill="none" points="418.5,1112.13,425.5,1092.13,432.5,1112.13,418.5,1112.13" style="stroke:#000000;stroke-width:1.0;"/><!--MD5=[f26a1a2c200d625b8deb2997e0eac18e]
reverse link Node to AnswerNode--><path d="M494.03,1062 C494.03,1062 529.25,1062 529.25,1062 C529.25,1062 529.25,1122.39 529.25,1160.37 " fill="none" id="Node-backto-AnswerNode" style="stroke:#000000;stroke-width:1.0;"/><polygon fill="none" points="494.03,1069,474.03,1062,494.03,1055,494.03,1069" style="stroke:#000000;stroke-width:1.0;"/><!--MD5=[ddcc3d7ea620b7be58117306ecd5be67]
link Level to Category--><path codeLine="66" d="M325.33,278.08 C325.33,278.08 325.33,378.91 325.33,378.91 " fill="none" id="Level-Category" style="stroke:#000000;stroke-width:1.0;"/><line style="stroke:#000000;stroke-width:1.0;" x1="325.33" x2="331.33" y1="378.91" y2="386.91"/><line style="stroke:#000000;stroke-width:1.0;" x1="325.33" x2="319.33" y1="378.91" y2="386.91"/><line style="stroke:#000000;stroke-width:1.0;" x1="325.33" x2="325.33" y1="378.91" y2="386.91"/><ellipse cx="325.33" cy="372.91" rx="4" ry="4" style="stroke:#000000;stroke-width:1.0;fill:none;"/><line style="stroke:#000000;stroke-width:1.0;fill:none;" x1="321.33" x2="329.33" y1="274.08" y2="274.08"/><line style="stroke:#000000;stroke-width:1.0;fill:none;" x1="321.33" x2="329.33" y1="277.08" y2="277.08"/><line style="stroke:#000000;stroke-width:1.0;fill:none;" x1="325.33" x2="325.33" y1="278.08" y2="270.08"/><!--MD5=[04a2db5f0875e86738de0296bf8c209b]
link Category to Task--><path codeLine="67" d="M345.25,528.19 C345.25,528.19 345.25,830.9 345.25,830.9 " fill="none" id="Category-Task" style="stroke:#000000;stroke-width:1.0;"/><line style="stroke:#000000;stroke-width:1.0;" x1="345.25" x2="351.25" y1="830.9" y2="838.9"/><line style="stroke:#000000;stroke-width:1.0;" x1="345.25" x2="339.25" y1="830.9" y2="838.9"/><line style="stroke:#000000;stroke-width:1.0;" x1="345.25" x2="345.25" y1="830.9" y2="838.9"/><ellipse cx="345.25" cy="824.9" rx="4" ry="4" style="stroke:#000000;stroke-width:1.0;fill:none;"/><line style="stroke:#000000;stroke-width:1.0;fill:none;" x1="341.25" x2="349.25" y1="524.19" y2="524.19"/><line style="stroke:#000000;stroke-width:1.0;fill:none;" x1="341.25" x2="349.25" y1="527.19" y2="527.19"/><line style="stroke:#000000;stroke-width:1.0;fill:none;" x1="345.25" x2="345.25" y1="528.19" y2="520.19"/><!--MD5=[c50fbf969dc83bb8230604bf586cccbb]
link Box to Category--><path codeLine="68" d="M414.96,454 C414.96,454 396.11,454 396.11,454 " fill="none" id="Box-Category" style="stroke:#000000;stroke-width:1.0;"/><line style="stroke:#000000;stroke-width:1.0;" x1="392.11" x2="392.11" y1="458" y2="450"/><line style="stroke:#000000;stroke-width:1.0;" x1="395.11" x2="395.11" y1="458" y2="450"/><line style="stroke:#000000;stroke-width:1.0;" x1="396.11" x2="388.11" y1="454" y2="454"/><line style="stroke:#000000;stroke-width:1.0;" x1="414.96" x2="422.96" y1="454" y2="448"/><line style="stroke:#000000;stroke-width:1.0;" x1="414.96" x2="422.96" y1="454" y2="460"/><line style="stroke:#000000;stroke-width:1.0;" x1="414.96" x2="422.96" y1="454" y2="454"/><ellipse cx="408.96" cy="454" rx="4" ry="4" style="stroke:#000000;stroke-width:1.0;fill:none;"/><!--MD5=[ff98bfc68daaf8150abbd611129fd08f]
link Box to BoxTask--><path codeLine="69" d="M521.5,520.29 C521.5,520.29 521.5,632.89 521.5,632.89 " fill="none" id="Box-BoxTask" style="stroke:#000000;stroke-width:1.0;"/><line style="stroke:#000000;stroke-width:1.0;" x1="521.5" x2="527.5" y1="632.89" y2="640.89"/><line style="stroke:#000000;stroke-width:1.0;" x1="521.5" x2="515.5" y1="632.89" y2="640.89"/><line style="stroke:#000000;stroke-width:1.0;" x1="521.5" x2="521.5" y1="632.89" y2="640.89"/><line style="stroke:#000000;stroke-width:1.0;" x1="525.5" x2="517.5" y1="630.89" y2="630.89"/><line style="stroke:#000000;stroke-width:1.0;" x1="517.5" x2="525.5" y1="516.29" y2="516.29"/><line style="stroke:#000000;stroke-width:1.0;" x1="517.5" x2="525.5" y1="519.29" y2="519.29"/><line style="stroke:#000000;stroke-width:1.0;" x1="521.5" x2="521.5" y1="520.29" y2="512.29"/><!--MD5=[59c8ca27f440a952c7eda0d2ba227a4e]
link BoxTask to Task--><path codeLine="70" d="M472.75,725.09 C472.75,725.09 472.75,831.72 472.75,831.72 " fill="none" id="BoxTask-Task" style="stroke:#000000;stroke-width:1.0;"/><line style="stroke:#000000;stroke-width:1.0;" x1="476.75" x2="468.75" y1="834.72" y2="834.72"/><line style="stroke:#000000;stroke-width:1.0;" x1="476.75" x2="468.75" y1="831.72" y2="831.72"/><line style="stroke:#000000;stroke-width:1.0;" x1="472.75" x2="472.75" y1="830.72" y2="838.72"/><line style="stroke:#000000;stroke-width:1.0;" x1="468.75" x2="476.75" y1="722.09" y2="722.09"/><line style="stroke:#000000;stroke-width:1.0;" x1="468.75" x2="476.75" y1="725.09" y2="725.09"/><line style="stroke:#000000;stroke-width:1.0;" x1="472.75" x2="472.75" y1="726.09" y2="718.09"/><!--MD5=[b851b96aceb3cf6ceaa84716ec73bc47]
link Task to Node--><path codeLine="71" d="M425.5,980.32 C425.5,980.32 425.5,1023.9 425.5,1023.9 " fill="none" id="Task-Node" style="stroke:#000000;stroke-width:1.0;"/><line style="stroke:#000000;stroke-width:1.0;" x1="425.5" x2="431.5" y1="1023.9" y2="1031.9"/><line style="stroke:#000000;stroke-width:1.0;" x1="425.5" x2="419.5" y1="1023.9" y2="1031.9"/><line style="stroke:#000000;stroke-width:1.0;" x1="425.5" x2="425.5" y1="1023.9" y2="1031.9"/><line style="stroke:#000000;stroke-width:1.0;" x1="429.5" x2="421.5" y1="1021.9" y2="1021.9"/><line style="stroke:#000000;stroke-width:1.0;" x1="421.5" x2="429.5" y1="976.32" y2="976.32"/><line style="stroke:#000000;stroke-width:1.0;" x1="421.5" x2="429.5" y1="979.32" y2="979.32"/><line style="stroke:#000000;stroke-width:1.0;" x1="425.5" x2="425.5" y1="980.32" y2="972.32"/><!--MD5=[ee3e5669450647f02e764df309a4ef45]
link GMN6799 to Game--><path d="M122.5,36.13 C122.5,46.3375 122.5,61.8869 122.5,79.592 C122.5,84.0183 122.5,88.5793 122.5,93.2253 C122.5,95.5483 122.5,97.8925 122.5,100.2518 " fill="none" id="GMN6799-Game" style="stroke:#000000;stroke-width:1.0;stroke-dasharray:7.0,7.0;"/><!--MD5=[594bfbd9f471216885001b4108416bf1]
link User to Level--><path codeLine="96" d="M770.73,212 C770.73,212 577.07,212 577.07,212 " fill="none" id="User-Level" style="stroke:#000000;stroke-width:1.0;"/><line style="stroke:#000000;stroke-width:1.0;" x1="580.07" x2="569.07" y1="212" y2="212"/><ellipse cx="580.07" cy="212" rx="4" ry="4" style="stroke:#000000;stroke-width:1.0;fill:none;"/><line style="stroke:#000000;stroke-width:1.0;fill:none;" x1="573.07" x2="573.07" y1="216" y2="208"/><line style="stroke:#000000;stroke-width:1.0;fill:none;" x1="770.73" x2="778.73" y1="212" y2="206"/><line style="stroke:#000000;stroke-width:1.0;fill:none;" x1="770.73" x2="778.73" y1="212" y2="218"/><line style="stroke:#000000;stroke-width:1.0;fill:none;" x1="770.73" x2="778.73" y1="212" y2="212"/><ellipse cx="764.73" cy="212" rx="4" ry="4" style="stroke:#000000;stroke-width:1.0;fill:none;"/><!--MD5=[0004528d1fd0f0ebdf90658bcc01e426]
link User to Category--><path codeLine="97" d="M770.95,285 C770.95,285 356.67,285 356.67,285 C356.67,285 356.67,378.9 356.67,378.9 " fill="none" id="User-Category" style="stroke:#000000;stroke-width:1.0;"/><line style="stroke:#000000;stroke-width:1.0;" x1="356.67" x2="356.67" y1="375.9" y2="386.9"/><ellipse cx="356.67" cy="375.9" rx="4" ry="4" style="stroke:#000000;stroke-width:1.0;fill:none;"/><line style="stroke:#000000;stroke-width:1.0;fill:none;" x1="360.67" x2="352.67" y1="382.9" y2="382.9"/><line style="stroke:#000000;stroke-width:1.0;fill:none;" x1="770.95" x2="778.95" y1="285" y2="279"/><line style="stroke:#000000;stroke-width:1.0;fill:none;" x1="770.95" x2="778.95" y1="285" y2="291"/><line style="stroke:#000000;stroke-width:1.0;fill:none;" x1="770.95" x2="778.95" y1="285" y2="285"/><ellipse cx="764.95" cy="285" rx="4" ry="4" style="stroke:#000000;stroke-width:1.0;fill:none;"/><!--MD5=[c5ca0193d6717508f4f29c8bf8d8a670]
link User to Box--><path codeLine="98" d="M770.77,299 C770.77,299 614.67,299 614.67,299 C614.67,299 614.67,386.65 614.67,386.65 " fill="none" id="User-Box" style="stroke:#000000;stroke-width:1.0;"/><line style="stroke:#000000;stroke-width:1.0;" x1="614.67" x2="614.67" y1="383.65" y2="394.65"/><ellipse cx="614.67" cy="383.65" rx="4" ry="4" style="stroke:#000000;stroke-width:1.0;fill:none;"/><line style="stroke:#000000;stroke-width:1.0;fill:none;" x1="618.67" x2="610.67" y1="390.65" y2="390.65"/><line style="stroke:#000000;stroke-width:1.0;fill:none;" x1="774.77" x2="774.77" y1="295" y2="303"/><line style="stroke:#000000;stroke-width:1.0;fill:none;" x1="771.77" x2="771.77" y1="295" y2="303"/><line style="stroke:#000000;stroke-width:1.0;fill:none;" x1="770.77" x2="778.77" y1="299" y2="299"/><!--MD5=[c5ca0193d6717508f4f29c8bf8d8a670]
link User to Box--><path codeLine="99" d="M771,313 C771,313 660.33,313 660.33,313 C660.33,313 660.33,386.73 660.33,386.73 " fill="none" id="User-Box-1" style="stroke:#000000;stroke-width:1.0;"/><line style="stroke:#000000;stroke-width:1.0;" x1="660.33" x2="666.33" y1="386.73" y2="394.73"/><line style="stroke:#000000;stroke-width:1.0;" x1="660.33" x2="654.33" y1="386.73" y2="394.73"/><line style="stroke:#000000;stroke-width:1.0;" x1="660.33" x2="660.33" y1="386.73" y2="394.73"/><ellipse cx="660.33" cy="380.73" rx="4" ry="4" style="stroke:#000000;stroke-width:1.0;fill:none;"/><line style="stroke:#000000;stroke-width:1.0;fill:none;" x1="775" x2="775" y1="309" y2="317"/><line style="stroke:#000000;stroke-width:1.0;fill:none;" x1="772" x2="772" y1="309" y2="317"/><line style="stroke:#000000;stroke-width:1.0;fill:none;" x1="771" x2="779" y1="313" y2="313"/><!--MD5=[4e81b82d98caaff6174508de1b1fa5d7]
@startuml
skinparam linetype ortho
!theme plain

package Game <<Rectangle>> {

  entity Level {
    + id: number (PK)
    - -
    * name: string
    * layer: number
    - -
    # categories: Document<Category>[]
  }

  entity Category {
    + id: number (PK)
    - -
    * iconUrl: string
    * name: string
    * description: string
    - -
    # tasks: Document<Task>[] (FK)
  }

  entity Task {
    + id: number (PK)
    - -
    * name: string
    * description: string
    * question_count: number
    - -
    * nodes: Subdocument<Node>[]
  }

  entity Node {
    * title: string
  }

  entity ImageNode extends Node {
    * imageUrl: string
    * imageAlt: string
  }

  entity TextNode extends Node {
    * text: string
  }

  entity AnswerNode extends Node {
    * question: string
  }

  entity Box {
    + id: number (PK)
    - -
    * try: number
    - -
    # category: Document<Category> (FK)
    * tasks: Subdocument<BoxTask>[]
  }

  entity BoxTask {
    # task: Document<Task> (FK)
    * task.answer
  }

  Level ||- -o{ Category
  Category ||- - -o{ Task
  Box }o-r-|| Category
  Box ||- - -|{ BoxTask
  BoxTask ||- - -|| Task
  Task ||-d-|{ Node
}

note top of Game
    <i>Considering a NoSQL db engine</i>
end note

package User <<Rectangle>> {

  entity User {
    + id: number (PK)
    - -
    * email: string
    * name: string
    * sex: number
    * birthday: string
    * password: string
    * tries: number
    - -
    # level: Document<Level> (FK)
    # category: Document<Category> (FK)
    # box: Document<Box> (FK)
    # history: Document<Box>[] (FK)
  }

  User }o-o| Level
  User }o-o| Category
  User ||-o| Box
  User ||-o{ Box

}

@enduml

@startuml
skinparam linetype ortho







<style>
  root {
    BackgroundColor white
    FontColor black
    FontName Verdana
    HyperLinkColor blue
    LineColor black
    LineThickness 1
    Margin 5
  }
  caption {
    LineThickness 0
  }
  footer {
    LineThickness 0
  }
  header {
    LineThickness 0
  }
  node {
    MaximumWidth 300
  }
  title {
    FontSize 22
    LineThickness 0
  }
</style>

skinparam ArrowLollipopColor black
skinparam BackgroundColor white
skinparam DefaultFontName Verdana
skinparam DefaultMonospacedFontName Courier
skinparam LifelineStrategy nosolid
skinparam ParticipantPadding 10
skinparam SequenceLifeLineBorderColor black
skinparam Shadowing false
skinparam UseBetaStyle true

skinparam Activity {
  BackgroundColor white
  BarColor black
  BorderColor black
  FontColor black
  FontName Verdana
}
skinparam Boundary {
  FontColor black
}
skinparam Box {
  Padding 5
}
skinparam CircledCharacter {
  FontColor black
  FontName Courier
  Radius 9
}
skinparam Class {
  BackgroundColor white
  BorderColor black
  FontColor black
  FontName Verdana
}
skinparam ClassAttribute {
  FontColor black
  FontName Verdana
}
skinparam ClassStereotype {
  FontColor black
  FontName Verdana
}
skinparam Footer {
  FontColor black
  FontName Verdana
}
skinparam Header {
  FontColor black
  FontName Verdana
}
skinparam Hyperlink {
  Color blue
}
skinparam IconPackage {
  Color black
  BackgroundColor white
}
skinparam IconPrivate {
  Color black
  BackgroundColor white
}
skinparam IconProtected {
  Color black
  BackgroundColor white
}
skinparam IconPublic {
  Color black
  BackgroundColor white
}
skinparam Note {
  FontColor black
  FontName Verdana
}
skinparam Object {
  BorderColor black
}
skinparam Package {
  BorderColor black
  FontColor black
  FontName Verdana
}
skinparam State {
  BackgroundColor white
  BorderColor black
}
skinparam StereotypeA {
  BackgroundColor white
  BorderColor black
}
skinparam StereotypeC {
  BackgroundColor white
  BorderColor black
}
skinparam StereotypeE {
  BackgroundColor white
  BorderColor black
}
skinparam StereotypeI {
  BackgroundColor white
  BorderColor black
}
skinparam StereotypeN {
  BackgroundColor white
  BorderColor black
}
skinparam UseCaseStereoType {
  FontColor black
  FontName Verdana
}

package Game <<Rectangle>> {

  entity Level {
    + id: number (PK)
    - -
    * name: string
    * layer: number
    - -
    # categories: Document<Category>[]
  }

  entity Category {
    + id: number (PK)
    - -
    * iconUrl: string
    * name: string
    * description: string
    - -
    # tasks: Document<Task>[] (FK)
  }

  entity Task {
    + id: number (PK)
    - -
    * name: string
    * description: string
    * question_count: number
    - -
    * nodes: Subdocument<Node>[]
  }

  entity Node {
    * title: string
  }

  entity ImageNode extends Node {
    * imageUrl: string
    * imageAlt: string
  }

  entity TextNode extends Node {
    * text: string
  }

  entity AnswerNode extends Node {
    * question: string
  }

  entity Box {
    + id: number (PK)
    - -
    * try: number
    - -
    # category: Document<Category> (FK)
    * tasks: Subdocument<BoxTask>[]
  }

  entity BoxTask {
    # task: Document<Task> (FK)
    * task.answer
  }

  Level ||- -o{ Category
  Category ||- - -o{ Task
  Box }o-r-|| Category
  Box ||- - -|{ BoxTask
  BoxTask ||- - -|| Task
  Task ||-d-|{ Node
}

note top of Game
    <i>Considering a NoSQL db engine</i>
end note

package User <<Rectangle>> {

  entity User {
    + id: number (PK)
    - -
    * email: string
    * name: string
    * sex: number
    * birthday: string
    * password: string
    * tries: number
    - -
    # level: Document<Level> (FK)
    # category: Document<Category> (FK)
    # box: Document<Box> (FK)
    # history: Document<Box>[] (FK)
  }

  User }o-o| Level
  User }o-o| Category
  User ||-o| Box
  User ||-o{ Box

}

@enduml

PlantUML version 1.2022.0(Tue Jan 11 16:16:42 UTC 2022)
(GPL source distribution)
Java Runtime: OpenJDK Runtime Environment
JVM: OpenJDK 64-Bit Server VM
Default Encoding: UTF-8
Language: en
Country: null
--></g></svg>